/* XPM */
static char *_7b79f9e071d4bf3ff5a4f64c6f83babtsFYuOna9SxfvDrL[] = {
/* columns rows colors chars-per-pixel */
"64 64 256 2 ",
"   c #0C0A0C",
".  c #0B0505",
"X  c #120502",
"o  c #130C04",
"O  c #1B0C02",
"+  c #120D0C",
"@  c #1B0D0B",
"#  c #190304",
"$  c #14110D",
"%  c #1B140B",
"&  c #1B1305",
"*  c #0D0D12",
"=  c #0A0812",
"-  c #120E13",
";  c #190D13",
":  c #0F1015",
">  c #141315",
",  c #1A1414",
"<  c #161817",
"1  c #1C1915",
"2  c #141519",
"3  c #1A151B",
"4  c #17181B",
"5  c #1B1A1C",
"6  c #230D01",
"7  c #250702",
"8  c #231303",
"9  c #23150B",
"0  c #241B0E",
"q  c #2B1B0C",
"w  c #2A1706",
"e  c #331501",
"r  c #3B1C01",
"t  c #331C0B",
"y  c #361905",
"u  c #241B12",
"i  c #2B1D12",
"p  c #221B1C",
"a  c #251614",
"s  c #311C18",
"d  c #38230C",
"f  c #2C2214",
"g  c #2C231B",
"h  c #28241A",
"j  c #342414",
"k  c #342915",
"l  c #3C2B13",
"z  c #332B1C",
"x  c #3B2D1B",
"c  c #372518",
"v  c #3D311B",
"b  c #2E250E",
"n  c #1D1C23",
"m  c #1A1623",
"M  c #231D22",
"N  c #251E29",
"B  c #1D2226",
"V  c #232124",
"C  c #24242B",
"Z  c #2A2629",
"A  c #382A24",
"S  c #3C3424",
"D  c #3B3329",
"F  c #272A33",
"G  c #352D34",
"H  c #3A3338",
"J  c #2D333A",
"K  c #1E201B",
"L  c #472A09",
"P  c #523109",
"I  c #432C14",
"U  c #472A17",
"Y  c #44321D",
"T  c #4B341C",
"R  c #4B361A",
"E  c #563818",
"W  c #512E0A",
"Q  c #603A1B",
"!  c #492B27",
"~  c #453525",
"^  c #43362A",
"/  c #4B3D2B",
"(  c #473A27",
")  c #563A26",
"_  c #443C33",
"`  c #463A37",
"'  c #563B33",
"]  c #5A2F29",
"[  c #633C38",
"{  c #643B22",
"}  c #471F17",
"|  c #4C422C",
" . c #5A452B",
".. c #5C4A2B",
"X. c #574427",
"o. c #4A4439",
"O. c #544433",
"+. c #5D4C33",
"@. c #5B4D3C",
"#. c #564739",
"$. c #5C513C",
"%. c #644C2D",
"&. c #69482A",
"*. c #624D33",
"=. c #624C3C",
"-. c #694836",
";. c #75473A",
":. c #645334",
">. c #6B5435",
",. c #64523B",
"<. c #6B563C",
"1. c #6D5A3C",
"2. c #6B5937",
"3. c #735C3D",
"4. c #775738",
"5. c #6F4F2C",
"6. c #7B613D",
"7. c #66461F",
"8. c #363C43",
"9. c #413C43",
"0. c #4C4541",
"q. c #4C4944",
"w. c #544B45",
"e. c #554D49",
"r. c #5A4B46",
"t. c #5D5241",
"y. c #5C554A",
"u. c #575253",
"i. c #674C44",
"p. c #645442",
"a. c #645945",
"s. c #6C5B43",
"d. c #635D4B",
"f. c #6C5D4B",
"g. c #695545",
"h. c #735D43",
"j. c #765948",
"k. c #665854",
"l. c #785A55",
"z. c #71494A",
"x. c #6B624C",
"c. c #756244",
"v. c #7B6445",
"b. c #74624B",
"n. c #7B654B",
"m. c #7D6A4C",
"M. c #766948",
"N. c #7D714D",
"B. c #6C6655",
"V. c #746552",
"C. c #7D6B53",
"Z. c #786957",
"A. c #7B735B",
"S. c #7B7666",
"D. c #736D6C",
"F. c #875B3C",
"G. c #84643D",
"H. c #855B45",
"J. c #845A56",
"K. c #935C57",
"L. c #816649",
"P. c #826B4C",
"I. c #8A6B4C",
"U. c #866645",
"Y. c #97684C",
"T. c #8A714D",
"R. c #826D52",
"E. c #886858",
"W. c #976B58",
"Q. c #857253",
"!. c #8A7554",
"~. c #84735A",
"^. c #8B755C",
"/. c #8D7A5C",
"(. c #887A57",
"). c #927D5D",
"_. c #9C7B5A",
"`. c #977557",
"'. c #95744A",
"]. c #A6775C",
"[. c #A26D57",
"{. c #915E60",
"}. c #876C66",
"|. c #956864",
" X c #8C7C62",
".X c #887868",
"XX c #987866",
"oX c #9A7A75",
"OX c #907174",
"+X c #AA7C64",
"@X c #A67966",
"#X c #A77A77",
"$X c #AF786F",
"%X c #95825C",
"&X c #8D825C",
"*X c #8C8368",
"=X c #958263",
"-X c #9B8566",
";X c #9B8B65",
":X c #988769",
">X c #8B8474",
",X c #978678",
"<X c #9D9172",
"1X c #AB836A",
"2X c #A28C6C",
"3X c #A88667",
"4X c #B4886C",
"5X c #A9936A",
"6X c #B69568",
"7X c #A88677",
"8X c #B78975",
"9X c #AA9475",
"0X c #A99779",
"qX c #B79679",
"wX c #B9A478",
"eX c #C1937B",
"rX c #C5A77B",
"tX c #B87D81",
"yX c #999085",
"uX c #A98783",
"iX c #B78B87",
"pX c #A79B87",
"aX c #B89688",
"sX c #B99893",
"dX c #B69193",
"fX c #BAA789",
"gX c #ABA693",
"hX c #B5AA95",
"jX c #B3AB94",
"kX c #BCB6A6",
"lX c #AEA8A8",
"zX c #C18D8C",
"xX c #C29588",
"cX c #C69A95",
"vX c #D09E93",
"bX c #C8B688",
"nX c #C8A69B",
"mX c #C5B596",
"MX c #CDAF8F",
"NX c #CCACA2",
"BX c #D5ABA5",
"VX c #D7B5A8",
"CX c #CDB6AD",
"ZX c #E1B6B0",
"AX c #D6C593",
"SX c #E5D59B",
"DX c #D9C6A5",
"FX c #D4CAB2",
"GX c #E2CDA7",
"HX c #E8D7A5",
"JX c #F3DDB5",
"KX c #EBD7B5",
"LX c #F5E2B5",
"PX c #EED9C4",
"IX c #FAE9CB",
"UX c #FFEBE0",
/* pixels */
"e.e.e.w.w.e.r.w.r.w.0.o.0.0.0.0.0.o.` ` ` o.o.o.o.o.` o.0.q.e.0.q.o.q.q.w.w.e.e.y.y.k.y.k.q.yXB.S.B.B.d.Z.B.B.Z.A.>X.XV.V.Z.}.}.",
"e.e.e.e.e.r.e.w.y.r.r.w.w.w.e.e.w.q.q.0.q.q.q.q.0.w.w.w.w.e.e.q.o.o.o.o.o.o._ _ o.D D D D h gXkXS.Z.>XD D D | ( S ( ( ~ O.=.g.g.",
"d.y.y.d.y.t.@.@.t.@.#.#.o.o.o.o._ _ D D D D A z g z f u g h u 0 u 0 0 0 f f i q q i c ^ ^ x kXCXFX,X>Xt.S.y.#.x.Z.f.$.p.f.f.g.f.",
"S x x x x k j j q q q q i i u 0 i 0 0 f f k k k k ^ / ^ ( / / p.a.a.a.f.x.V.V.V.f.Z.~.V.f.#.kXFXPXgXgXpXS.B.S.y.Z.d.t.g.f.f.g.f.",
"k k l v Y x l d O.O.@.@.t.t.t.t.p.p.a.a.x.b.V.V.Z.~.~.V.C.C.x.C.b.b.b.b.n.n.n.n.n.<.s.h.~.( l v 0XgXjXkXgXA.x.B.d.d.a.f.f.s.g.f.",
",.,.s.b.n.c.+.( s.s.b.b.b.x.f.f.s.s.s.s.s.s.s.s.s.1.h.s.C.~.h.h.m.n.n.v.n.n.n.v.n.n.n.3.c.R 6 O . S >X,XCXkX,Xx.d.d.a.a.f.g.,.p.",
",.s.n.C.R.n.+.I s.s.s.s.s.a.a.s.<.s.s.s.s.s.n.C.b.n./.P.c.v.1.v.3.<.>.>.4.3.3.3.n.P.v.v.n.n.X.l v 8 O b pXFXhXpXx.a.#.$.f.B.f.f.",
",.s.b.n.R.m.*.I <.<.<.<.s.s.V.V.s.b.b.c.s.h.n.R.^.c.n.3.v.!.3.2.v.3.3.3.h.v.L.L.4.v.L.).v.P.n.<.b.x.| x O | pXhXgX.Xa.$.f.f.p.t.",
"n.h.n.^. X^.h.I <.R.b.<.f.b.b.b.<.n.h.b.b.R.n.b.R.n.h.3.L.v.I.!.m.P.v.3.v.3.3.n.P.L.P.-X).m.1.M.c.x. XM.| O & O.<XjXpXA.@.@.t.t.",
"f.b.~.b.n.n.h.T h.n.<.s.h.=.,.s.C.C.s.b.f.b.b.~.~.n.<.-.v.L.I.P.h.m.v.<.h.P.P.m.P.v.n.m.P.c.c.m.s.b.C.$.Z.x.| & 0 $.yXkXyXB.@.@.",
"b.f.Z.~.~.R.<.Y h.h.<.n.R.h.h.C.A.~.s.f.g.=.=.f.Z.n.b.h.Q.!.I.v.v.Q.R.m.R.^.P.n.h.h.n.3.v.1.c.h.m.x.s.+.x.Z.V.Z.S o & y.gXkXyXd.",
"V.g.@.V.f.C.<.X.h.n.c.n.P.c.c.n.Z.@.x | @.~ x ~ O.p.b.h.n.c.c.3.v.m.n.R.m.m.c.M.1.c.m.v.n.h.h.1.<.,... .( ( v S v ( ( 0 f B.jXkX",
"S v x l l +.*.) m.R.m.R.m.1.:.+.>X@.f / #.i i j x #.s.:.<.>.3.3.c.v.c.m.c.m.m.Q.P.R.m.P.c.c.3.c.h.+.( ( | O.$.t.^ S o.o.z X _ >X",
"f 9 j O k Y +.R h.c.v.!.!.v.v.c.| S k S x 0 ^ x k O.a.:.1.1.6.2.1.m.R.!.c.Q.Q.m.m.m.M.m.1.1.<.c.n.,.,.( s.$.V.@.0 x D z y.o.f o ",
"t.| ( k v R ..X.%.3.m.%X;X;X2X=X$.x.x.@.x f o.9 0 | a.+.:.:.:...*.3.v.P.>.v.3.:.1.1.3.c.1.>.>.1.s.s.=.l O.a.V.k 0 S z z S.k.D z ",
"0XhXhXpXC.:X(.M.v.%X5X9XqXfXbX<X*XB.d.d.#.( d.k q | a.......:.:.>.:.%.1.X.>.:.:.:.:.1.*.>.%.1.3.:.<...,.( / / x i A g D >Xw.u _ ",
"mXGXIXIXmXfXDX5X5XbXAXbXbXHXGXmXA.y.y.o.#.#.O.k b | a.,.,.+.c.2.:.1.2.....:.<.1.:.M.c.M.c.1.:.1.1.c.3.1.c.,.p./ ^ D ^ _ _ _ _ D ",
"AXGXLXJXKXIXUXJXAXHXHXHXSXJXGXDX*X*XS.t.O.t.x.O.Y ( +.+.s.s.M.1.c.Q.Q.c.:.X...*.2.Q.Q.:.:.1.M.M.2.5.2.m./.b.,./ | ^ D _ o._ _ o.",
"JXJXLXIXIXPXKXIXGXHXHXSXHXJXDXGXmXgXgX<X*XA.*X:X:XM.C.Q./.).Q.v.9X9X(.M.c.1.M.c.1.m.!.....h.b.c.m.2.3.v.!.c.,.@.a.f.V..X*XZ.d.B.",
"JXGXmXKXPXaX/.mXAXHXSXAXHXHXDXDXFXjXhXmXfX*X:X0X0XQ.(.Q.!.%XQ.P.m.).!.m.n.<.M.c.h.1.1.*.:.~.n.m.P.6.n.3.b.n.n.~.b.~.~.~.~.x.a.A.",
"MXbX!.fXVX^.X.P.wXAXbXAXGXAXGXDXfXfXmXfX0X:X2X2X9X=X2X).!.%X).-XP.).-X).).m.P.v.^.c.h.1.c.=X~./.m.c.~.C.Q.V.b.C.b. X:X=X(.M.1.M.",
"MXMXI.XXaX/.X.X.(.5X5XwXbX0XmXDX0XfXmX0X2X;X0X0X9X9XqX2X/.)./.2X9X2X-XQ.).Q.R.v.Q.M.!.b.~. X X~. XC. X,X0X X~.~.~.=X XN.Q.&X:X<X",
"MXMX-X`.-X2Xv.>.%X%X5X5X0X2X2X9X2X9X0X2X2X-X9XfX2XqX9X9X2X2X).2X=X).9X).=XQ.v.M.c.c.~.~. X~.~.s.@.| #.p.f.@.p.f.,.x.M.M.Q.:X0X<X",
"qXqXI.L.P.XXh.3.=XT.5X;X9XqX-X/.-X;X2X=X2X2X9X0X-X9X=X2X9X-XP.Q.v.3.).R.-X/.c.1.<X:X/.*XZ.f.#.~ x S c q 9 O j c q x ~ ( | a.A.A.",
"4X4X3X`.I.^.n.<.m.Q.<X;X9X2X-X-X0X0X2X:X!.=X2X2X9X2X-X/./.=X/.v.).(.!.m.(.(.N.(.<X*X X*Xs.j j q i u 9 u i u i i a 9 O X o u g z ",
"W.4X8X1X`.!.3.>.Q./.R./. X^. X X9X/.R././.-X).R. X/.(.Q./.-X-XQ.<X%X(.!.;X;XN.M.N.~.~.x v w O / o._ g 9 9 a % X O @ @ @ ; , , , ",
"Y.+X8XqX@XP.%.%.-X=Xm.^.R.C.^.=X!.Q.~.:X/././.=X X=X XQ.P.!./.!.!.%X2X;X;X&XN.(.=X~.C.Y 8 6 l.CXkXuX}.l.#.A s A s a @ + ; - - - ",
"].[.].4X4XL.R %.n.c.~. XR.~.n.R. X^.R.~.m.C.n.m.R.R.R.v.v.Q.).).T.!.(.).;X;XQ.R.(.m.V.g.Y l.7XE.}.,XsXsXsXdXuXoXyX}.r.G 3 = = - ",
"+X[.W.1X4XT.R ..h.s.~.C.n.C.n.C.^.~.n.C.R. X/././.Q.v.3.3.P.Q.v.T.P.v.v.%X%Xm.M.m.fXPXnX}.7Xl.[ ' -.J.#XsXsXdXuXOXOXoXOXk.G 3   ",
"[.].].].4X_.E %.R.R.~.b.s.*.R.h.C./.!.m.1.h.h.v.P.m.L.v.6.P././.6.P.P.v.P.P.v.Q.2XGXPXnXsXiX#X#X|.J.E.iXiXJ.[ [ ] ! ! ` ` A p + ",
"Y.].+X+X6X_.E %.h.h.b.Z.g. .<. .c.m.c.c.v.n.3.v.I.T.T.U.4.6.U.U.6.U.G.6.U.P.v.P.2XVXaXuXsXcXZXdXiXzXzXiX#XW.|.XX|.l.#./ _ D a . ",
"[.[.[.+XqX`.L %.h. .*.g. .,.,.s.,.<.*.<.3.3.%.4.6.4.5.4.4.U.6.5.U.U.G.6.I.T.3.h.2XaXXXiXcXdXOX#XiXzXcXiX@XW.#XaXiXiXoXZ.i.^ s @ ",
"F.].`.].4XT.E R ....+.( X.,.+.<.,.+.,.<.>.2.4.4.4.4.U.4.U.I.3.U.'.U.4.4.6.v.c.c.fXnX7XuX#XJ.{.uX#XXXE.J.z.;.J.XX#XuX|.z.' ! A i ",
"W Y.3X_.9X_.L ..%.:.( X.:.| ( l ( l E 2.%.5.I.U.4.U.H.j.I.h.4.I._.3X3X3X2X2X9XaX0Xc =.oXoXl.J.uXiX#X|.J.J.K.|.#X#XoXl.[ ! ! ' Z.",
"{ Y.1X_.1X9X) R *.X.*.+. .T d ..%.E E E 4.5.&.Q 5.&.E j.qXqXqXaXaXaXaXxXVXDXVXnX7XoX,X.XoXuXdXJ.7XxXcXxXzXvXBXBXBXsX|.[ z.dXCXZX",
"F.[.].1X1X@X-.r L E R %.>.E  .>.4.P 5.5.5.Q &.4.-.L.7X0X^.C.C.) E.7XsXiXXXl.=.#.~ i.j.j.l.oXuXnXaXnXBXVXVXZXVXBXBXvXcXXXnXVXcXiX",
"Y.1X].1XqX4XG.4.U._.U.U.T.I.`.T.'.W P 7.&.L  .h.0X,Xi.q q w c }.,X}.r.g a 9 9 9 A O.' }.E.}.nXsXnXNXnXsX7XXX#X7XiXiX8XJ.zXxXtXvX",
"W.F.Y.].4XqX&.P E P E E E L r L L P r W X.I .XpX.Xz @ p g g i H p 1 . . 1 h h g A q .XaXhXNXnXnXNXsXoXl.] y y } [ ;.|.7X#XiXiXiX",
"W.&.H.W.I.@XE # e e 7 E 5.r e 7 r r e I l ~ S.e.1 1 Z V 3 3 3   , 1 K Z Z h % % 0 g.sXnXNXnXnXcX#X{.z.;.z.;.[ ] ! } }.CXE.#.#.' ",
"W.@XW.H.j.@X4XXX`.3X_.3X3XI.G.U.4.>.1.s.@./ g p p M > 3 5 + , $ $ $ o + % i _ k.pXNXnXBXvXcX8X|.K.K.K.{.{.{.|.|.|.E.Z.Z.t./ ' ^ ",
"Y._.I.`.5XxXwXbXrXrXrX6X6X6X6X6X5X9X2X~.#.z g A p p , X . . o @ j ! i.}.uXdXnXBXNXcXcXiX$X|.|.$XtXzXzXiXuXuX#XOXi.! 9 8 i S o.#.",
"5X9X5X5X5X5X3X5X6X6X6X6X6X'.G.4.I.>.T d t q w 6 9 i A ^ #.f.}.oXaXcXnXBXBXnXcXcXcXaXiXuX#X#XiXcXcXcXdXdXdXdXdXdX,X}.k.' A i c ^ ",
") r e r ) %.%.&.r e r W P Q 4.]._.3X3XI.>.-.j.^.XX7XqXaXaXxXnXnXvXvXvXxXaXiXiXuX#XOXE.l.l.l.}.}.l.k.e.e.e.e.u.l.}.tXdXdXOXl.}.uX",
"<.%. .T T I ) X.e 7 7 { `.4X4X4X4X4X4XqXeXeXqXqX8XqXxXxXxXxXqXeXqXxXaXiX#XXXE.j.' / A s a a a @ 3   .   . . . + ; X @ A r.k.z.z.",
" . .X.L r y L L W &.U.+X1X].].].].1X4X4X4X8X8X8X8X8X4X1X4X8X4X1X7XXXE.l.=.~ i 9 s Z V p n B n 5 M n 5 3 3 2 > > > > 3 , ; ; , , ",
"E X.E e 6 d &.U.].3X4X1X+X1X4XeXeXeX8X8X8X4X4X4X+X+X+X@X@XXX|.E.g.' x i a @ @ 1 > 1 n n B C B C m m n 3 2 n n 2 * 2 n 5 5 n n 5 ",
" .R e e E P.XX9X1X1X1X1X4X4X4X$X+X+X@X@X@X@X].@X@X|.W.J.i.' ! A 9 o X o 1 1 3 3 - 2 2 2 2 m m m n N N n C F F F C B n n n n n n ",
"4.3.-.j.XX8X+X+X+X+X+X+X+X@X@X@X@X@X`.W.W.W.E.L.j.-.) s @ # @ , + +   + 1 V n 3 - - - 3 m m m m n n n C F F J J J J 8.8.J B m 2 ",
"1X1X_.+X].[.+XY.Y.].[.Y.W.W.W.W.W.W.H.j.4.-.) Y j @ . . + - * *     > 1 V V p 3 p M M M M M M N M 5 C G F C F C F F F J F n 2 5 ",
"W.`.XXY.Y.U.F.Y.Y.F.H.U.H.H.j.;.;.&.) T I t 8 8 0 o .   < 2 * =       - 3 1 p p M Z H ` H H H ` ` H G Z C C F N C C C Z B 2 > 5 ",
"uXnX^.H.E.j.;.5.;.{ { -.E ) ' -.-.) U t 8 6 8 i % o + < 1 < * *           - 3 1 3 V H ` H H H ` u.u.9.N n C C n C C F C 5 > > < ",
"UXKX=.t U y U L U U U ) e e 6 t c c s c x c i 0 $ $ $ , < < > > > > > > > < 3 3 > p V Z M N Z G u.u.H n n C n n C F F C 4 : : > ",
"S.#.9 6 t t y T d U e t 6 w # 9 8 q c A ^ _ A u $ $ , < < > > > < < 1 5 V V p 1 5 M M 5 5 M V Z G G C 3 M C n n C F Z n > * * * ",
"O O @ 9 w q c I c ~ t 8 O q i ( O.#.O.S z g u o + $ 1 1 3 < > > < > < 1 V V V 5 n M M 5 M M V M M M n n C C n n C C n > * * * * ",
"o u % & 9 q c t l ~ Y t O O q x q k c k z A h % $ 1 1 5 1 < > * > > > > 1 5 5 5 1 5 5 1 5 V M p M M C Z C C N 2 C n 2 * * : - * ",
"D % 9 O q j w  .+.) T t O 8 x Y / Y k j z z u o 1 1 5 1 3 < > > > > < < < 1 1 1 5 n n 5 5 V V M M n C Z C C C 2 C 2 * : > > * = ",
"f 0 8 8 w l l d l I T w 6 O d d I Y Y I ( x o % 1 1 1 1 < < 2 > > > < < < < < < < < < < < 1 5 5 3 , < 5 M M n 2 5 : = : 2 . 2 * ",
"q X 8 q w w d Y R I I I T T ) T I R R T Y 0 X % 1 1 1 1 < 2 2 2 > > < < < < < < < < < < < < < < > > 2 2 2 > > > * : : : < * 2 > ",
"V.8 O 8 t w l ) ^.v.h.h.b.s.b.n.P.v.<.=.~ 8 9 g 1 1 3 < 2 2 2 2 < < < < < < < < < < < < > > > > < > * * > 2 2 > : * >   > * C e.",
",X8 O 8 l t t I ) T  .*.,. .*.,.<.<.<.p.~ 9 f h 1 1 < < 2 2 2 2 < < > > > < < < 1 1 < < > > > > > > > - > > 2 2 2   >   *   H yX",
"V.O 8 8 b q b Y ,.O.O.O.p.@.@.O.,.=.#.o.z % p + 3 < < 2 2 > < < < < < < > < < < < < 2 2 > > > >   > 1 < - : > 2 2 = < > 3 > q.lX",
"/ X & 9 q q c ~ Z.@./ A S ^ ^ z f u % o . + p > > > > > > > > , < < < < > > < < < < < 2 > > < < > > > < n C B < < 2 < * 5 Z D.lX",
"u . & u g f 0 % & o O o & o % o $ + $     * = . * * * * * $ $ $ , > > > , > > > < < < < < < < < 3 > * > C G C < 2 2 2 * < Z D.lX",
"g % & u 0 0 % 0 u % % % 1 $ 1 , <   > * * 2 = : =   =     + + + > > > > , > > > > > > > > > > > + 3 1 < > < 2 2 2 2 < < - 3 D.lX"
};
