/* XPM */
static char *_1ad0d7ebc794765f858eb50005231594m5Mun6YJtjSQlhm[] = {
/* columns rows colors chars-per-pixel */
"64 64 254 2 ",
"   c #080605",
".  c #0D0C0B",
"X  c #130B07",
"o  c #140D09",
"O  c #0D130E",
"+  c #15110D",
"@  c #1C130D",
"#  c #1A1815",
"$  c #23170E",
"%  c #241B13",
"&  c #251A15",
"*  c #291D13",
"=  c #30161A",
"-  c #1D241B",
";  c #2D2116",
":  c #20251D",
">  c #2C231B",
",  c #32261B",
"<  c #36271A",
"1  c #35291D",
"2  c #3E311E",
"3  c #16172A",
"4  c #281D2E",
"5  c #1E272B",
"6  c #232422",
"7  c #2A2A2A",
"8  c #372825",
"9  c #3B2C22",
"0  c #2D3529",
"q  c #38332A",
"w  c #322639",
"e  c #293335",
"r  c #343532",
"t  c #353937",
"y  c #3C3C3A",
"u  c #491C2B",
"i  c #541E32",
"p  c #462B27",
"a  c #542A26",
"s  c #473729",
"d  c #57392B",
"f  c #462934",
"g  c #582738",
"h  c #483934",
"j  c #5A3C38",
"k  c #683629",
"l  c #78382D",
"z  c #693032",
"x  c #793933",
"c  c #314A33",
"v  c #394834",
"b  c #4E4D33",
"n  c #42413D",
"m  c #4C4438",
"M  c #574638",
"N  c #674736",
"B  c #774737",
"V  c #67543B",
"C  c #725038",
"Z  c #53643A",
"A  c #6D6E39",
"S  c #1E2E4F",
"D  c #2D2D4D",
"F  c #362746",
"G  c #363A43",
"H  c #493749",
"J  c #52344B",
"K  c #463B57",
"L  c #6E324C",
"P  c #4D3C63",
"I  c #3A454A",
"U  c #354D53",
"Y  c #2E5070",
"T  c #3E617D",
"R  c #474745",
"E  c #4C4D4A",
"W  c #574944",
"Q  c #5C5347",
"!  c #52514D",
"~  c #4A5053",
"^  c #545552",
"/  c #595957",
"(  c #5D5D5A",
")  c #644D44",
"_  c #675648",
"`  c #785847",
"'  c #724C53",
"]  c #78455A",
"[  c #655C55",
"{  c #516A4D",
"}  c #6F6F44",
"|  c #786448",
" . c #62625E",
".. c #6B6358",
"X. c #786558",
"o. c #4E5469",
"O. c #475B68",
"+. c #6A536B",
"@. c #785367",
"#. c #51626D",
"$. c #4B6577",
"%. c #576A7A",
"&. c #656562",
"*. c #696566",
"=. c #6A6A65",
"-. c #6D6D6A",
";. c #756D66",
":. c #6C736E",
">. c #72726E",
",. c #7D756A",
"<. c #656D77",
"1. c #766979",
"2. c #747572",
"3. c #777976",
"4. c #7A7A75",
"5. c #7D7E7A",
"6. c #853A33",
"7. c #8B4E3C",
"8. c #873C4E",
"9. c #8A5846",
"0. c #89504C",
"q. c #985944",
"w. c #A35A4B",
"e. c #876849",
"r. c #9A654D",
"t. c #9F724C",
"y. c #876857",
"u. c #966A55",
"i. c #8B7555",
"p. c #977359",
"a. c #A56448",
"s. c #A76A56",
"d. c #A6765C",
"f. c #B67155",
"g. c #974769",
"h. c #895169",
"j. c #9A5776",
"k. c #AC5177",
"l. c #8F6F6F",
"z. c #857668",
"x. c #967969",
"c. c #847C74",
"v. c #A87962",
"b. c #AB7569",
"n. c #C37756",
"m. c #78874F",
"M. c #7F807D",
"N. c #8C873F",
"B. c #908E50",
"V. c #AD8A56",
"C. c #A9A558",
"Z. c #B6AD59",
"A. c #9C8B6A",
"S. c #82827D",
"D. c #8C8479",
"F. c #978677",
"G. c #A68777",
"H. c #B08873",
"J. c #B2B56B",
"K. c #C6BE65",
"L. c #CAC55F",
"P. c #52738D",
"I. c #5A7689",
"U. c #67798A",
"Y. c #B25E81",
"T. c #937388",
"R. c #AB718B",
"E. c #C4688F",
"W. c #5C839C",
"Q. c #678499",
"!. c #768897",
"~. c #648AA5",
"^. c #6A91AC",
"/. c #7396AE",
"(. c #7895A9",
"). c #77A5C6",
"_. c #848582",
"`. c #898787",
"'. c #8B8A85",
"]. c #8D8D89",
"[. c #968C88",
"{. c #8F908C",
"}. c #92928D",
"|. c #9C9389",
" X c #908E9B",
".X c #959692",
"XX c #979895",
"oX c #9A9A95",
"OX c #9D9D9A",
"+X c #AA9586",
"@X c #B79785",
"#X c #B0948E",
"$X c #A39D96",
"%X c #9BA299",
"&X c #BAA68F",
"*X c #A3A29D",
"=X c #ABA49A",
"-X c #B5A99C",
";X c #8B9BAB",
":X c #AB94A4",
">X c #86A4BB",
",X c #92A7B6",
"<X c #A5A5A1",
"1X c #A9A7A3",
"2X c #ABAAA5",
"3X c #ADAEA9",
"4X c #B2ADA7",
"5X c #B3B2AC",
"6X c #BBB5AA",
"7X c #AFACB2",
"8X c #B5B5B1",
"9X c #BBBAB4",
"0X c #BCBBB7",
"qX c #C49B88",
"wX c #C69F93",
"eX c #C4A48D",
"rX c #CBA795",
"tX c #D4A799",
"yX c #D3AC9C",
"uX c #CCB499",
"iX c #C19BAE",
"pX c #C7B3AD",
"aX c #D8B6A6",
"sX c #C2BCB4",
"dX c #C2BDBA",
"fX c #CAC1B3",
"gX c #C4C2BC",
"hX c #CBC5BD",
"jX c #D5CAB7",
"kX c #E0D2B8",
"lX c #8EAEC5",
"zX c #A7B8C7",
"xX c #CAB6C2",
"cX c #A9C4D8",
"vX c #C8C6C3",
"bX c #CCCAC5",
"nX c #D2CDC5",
"mX c #D2CFCA",
"MX c #D5D2CD",
"NX c #DAD5CC",
"BX c #D8D6D2",
"VX c #D9D7D2",
"CX c #DDDAD4",
"ZX c #E6DCC9",
"AX c #E2DED5",
"SX c #E1DFD9",
"DX c #EEE4CD",
"FX c #E4E0D6",
"GX c #E5E2DA",
"HX c #EBE6D9",
"JX c #E9E6DE",
"KX c #EAE7E0",
"LX c #EDEAE2",
"PX c #F1EEE6",
/* pixels */
"n h r y E sX'.2..X}.oX5.=.*X^ S.9X4.-.'.9X'.3.XX*.*X1XoX}.=.0 : 7 G K H ~ O.#.O.v B.J.B.C.V.| V V.i.M 9.` p.0.f F F D D P F D w ",
"n q  .S.4XoX'.OXgXnXvXgXS.2.=.`.*X-. .5XoXS.2.S. .1X*X$X1XoX2.7 6 r I O.$.P.P.I 0 } B.m.B.V.M e.V.C p C V i.9.p w 4 D D 4 # 3 w ",
"y R }.}.5X5.*XnX}. .-.>.]. .R }.S. .S.9X2X( ( './ 5X*X2XgX*X5X-.- O.Q.~.Q.W.$.# 6 Z { B.V.e.V t.t.C p 9.V i.r.k g 4 F 3 # 4 4 4 ",
"r '.].5X4.].dXS. .4.r y _.2.( OX .( 9X=X2X .y $X^ 8X*X5X5X3XhX'.6 $.U.U.I.P.I e ~ q b B.V.| C a.C ` ` 9._ p.r.x x w 3 3 4 F F 4 ",
"r 3.OX1XS.2X'.-.oX/ . n .X4.'.S.^ *X2X2X.X-.>.$X2.'.5X1X5X2X5X1Xt O.I.Q.$.O.7 O.:.m.} Z.V.N k n.s.d.p._ ` v.p.9.' F w w F D F w ",
".Xn }.OXOX}.&.XX'.7 . ! >.-./ n S.2X*XS.].].1XoX<X4..X8X8X0XgX}.t P.~.W.$.I t I R m.C.Z.f.B B n.d.f.f.s.` 9.9.u.' F F F F F F _ ",
"OX! oX].2X-._.`.E 7 + # : 6 6 5.1XoX'.{.}.OX*X8X].4.S.S.'.4.( y O.~.~.$.U 7 7 U v m.Z.Z.f.k d 7.0.x 8.8.g g a 0.L F D H w 4 _ B.",
"oX^ XX].*X( ].( &.^ ( y t -.2X2XoXS.].oX<X2X1X1X$X&.-.-.&.0 e $.W.^.$.O.O.G 7 G e I C.L.a.a f L g.g.g.g.8.L g f J F D 4 7 } B.B.",
".XR }.}.'.-._.n 4.*.'.*X3X5X.X-.( '.]..X.X].].].].( -.oX].r G I.~.~.$.~.~.~.U 7 I #.} B.B 8.L k.k.k.g.L L f 8 8 6 6 7 m B.B.B.C.",
"4.y }.S.>.( -.n '.oX5.5.].=.E 7 7 y &. .-.2X<X].-.].3X2XoXE U $.~.W.~.^.).O.r I %.O.m j g.k.g L g.] L J w 6 7 8 f p m B.B.B.Z.C.",
"=.r .X_.2.&. .y -.=.=.R ( -.oX*X5.E ]._.S.1XoX-.n S.oX3XoX .U $.~.~./.^.%.e r I #.L ] L k.k.g.J K P F w J J J g.s.u.C s A.Z.Z.C.",
"( 0 }._.5.-.( r E 2.>.! ( 8XgX2X>..X<XOX.X3XOX2.5.5X<X].}.5.I I.~.~.~.I.t e O.I.W g.k.] h.k.g.P P J J L H ) v.V.v.` ` M V C.B.i.",
"t 7 _.'.5.&. .# ^ 8X}./ M.dX*X=.S.3X2X].<X8X<XoX=.].$X=XoX-.r %.Q.~.I.I I I.Q.*.' h.k.j.] ] P P K K +.f h v.H.d.u.y.u.9.M e.C.L.",
"R t 2._.5.&.-.# - 4.<X^ =.9X_.! 2X2X8XOX0X5X5X-.>.'.|.D.c.'.W ! >.<.<.%.!.(.1.g.g.h.k.E.h.o.P K K P G h 9.v.H.y.p.u.u.9.C ` B.Z.",
"-. .&.}._. .4.# R XX5X2.E *X_. .9X2X5X5X].2XM.4.1XX.s M V m 1 s V m W 5.].*.' Y.k.] k.k.+.o.K K +.H H ) s.v.v.v.N ` d.` B 9.| Z.",
"].-.4.'.].2._.r &._..X<X/ >.*X-._.0X1X<X5XS.4.oX.., ; s b 2 ; , M d d M ' @.' Y.E.h.@.+.o.~ o.o.R R H ) s.f.u.` M v.d.7.k r.e.B.",
"8X].S.].{.4.].R .X>._.8X].E =.}.-.3.5X5XoX>.'..., ; , 1 2 2 2 > 1 9 1 s s j @.Y.E.Y.@.+.o.o.+.#.U.%.I y ` r.9.h N v.d.7.k q.e.B.",
"9X<X4.-.5.=._./ S.'.{.8X3X^ v `.*XS.c.1X>.4.c.9 $ % % ; 1 2 2 9 ; % % % % & h j.E.R.1.&.*.1.I.~.I.P.O.G y W j M 9.d.s.7.B q.t.| ",
"0XoX/ -.`.( 4.>.( .XS.<X5X&. .oX1X*XS.&.&.4.h % + @ % % 8 m M M s % % % % % ; M R.T.1.1.T.<./.!.Q.I.U.#.~ R y ` s.r.q.9.7.f.V._ ",
"9X*X .( 4./ '.S.( oXM.oX8X5.*.].1X*X2.&.'.[ > # + @ % h x.G.G.G.z.s * $ * ; , 9 ;.`.`. XT.!./.(.!.(.Q.U.O.I y 9.s.q.r.7.9.a.V.| ",
"2X<X5.^ 2.&.2X'.2.`.{.}.3X{.'..X'.'.M.}.[.M % @ + + 8 x.eXrXrXrXeXy.8 % & % ; ; [  X:X X X;X;X(.(.(.!.!.U.~ W s.s.s.u.` s.s.p.| ",
"OX*XXX( 2.2.9X.XoX2.*X`.1X*X{.5X2X1X*X*X;.8 % @ @ % ) @XrXyXyXyXyX@X) $ * % * < [ OX<X<X,X,X,X X;X>X(././.#.Q d.b.u.| e.p.d.e.i.",
"_.}.oX( 5.4.OX<X3X:.*X.XXX3X{.3XdX8X*Xc.q % % % % 8 x.@XrXyXyXaXyXrXG.s > > % ; W ].<XzXzXlX,X;X;XlX).lX).I.[ b.` W e.d.d.d.` B.",
"4.-.`.^ :.5._.3X<X`.{.2X{.3X<X*X0X0X2XW @ @ + + % s x.@XrXaXaXaXaXrX@X` > > % % 1 ) |.7X7XzXzX,X;XlX>XlX>XU.[ _ R Q _ u.v.d.| C.",
"2.R 3.( -.5.:.OXXX1X3.8X3X1X3XXXgXbX1Xn o o . + # 9 _ X.x.&XaXaX@Xx.y.) & & > % $ 1 z.5XxXzXcX,X,XlX>X>X(.<.[ X.' y._ y.u.` i.K.",
"=.E ^ / =.5._.!.XX5X2.2X8X<X3XOX8XgX$Xh X .   + & X.x.X.z.G.yXyXG.x.x.G.j & > % @ , ..9XxXxXcXzX,X;XlX>X(.<.z.p.u.X.) W ` M C.K.",
"S.E r R =.3.*X].OXOXXXXX8XOX*X*X5XgX=Xh o o   + 9 X.[ m z.G.wXrXG.X.W X.M % > % @ 8 z.$XdXpX7XcX,X X;X).(.(.!.<.*.R R 7 7 B.J.Z.",
"3X3.r t ( 2.].OXOX].8X].8X<XOX{.OXgX2XQ # +   X M x.x.F.#X+X@XqX@XG.x.x.) $ % ; $ s rX$X7XpXiX7XzX>X!.!./././.~.~.W.P.P.I.XX%X:.",
"0X*X].&.! 2.2.XXoXM.5XoX3X5XXX`._.oX>.h % o   X ` @XwXrXrXH.H.qX@XrXrXeXy.& * ; * 1 x.#X1X7XiX:X:X>X>X!.U.I.Q.~.~.~.~.~.~.~.~.Q.",
"<X*X{.^ ! :.5.].*X3.OX3X<X8X{.].2.=.h ; + + X X _ @XwXtXtXH.H.qXqXyXyXrXp.* * ; ; < s F.-X$X:X:X#XT.T.!.!.Q.I.%.$.P.P.W./.lX).).",
".X].}.-.^ M.{._.3X5.].8XoX5X`.-.3./ > % + X o # M H.wXyXyXG.qXqX@XtXyXwX` $ ; < ; 1 1 M z.$X[.R.R.R.T.l.1.<.I.I.I.$.#.O.U U $.I.",
"&.2.S.-.E }.2X].1X5.5.8X_.2X_./ ( ! > % @   o & q x.wXyXrXH.@X@XqXyXtX@XM @ * , 9 s s V x.+X[.l.T.R.T.j.@.h.h.@.1.U.O.$.P.P.P.$.",
"# ^  ./ ^ .X3XXXXXM.2.2X=.*X2.^  .h % @ @ X   X @ y.@XeXeX@XeXeXrXrXrXG.s @ & ; , 1 s ` p.G.l.*.l.T.j.@.h.j.j.h.W J j p 7 5 $.Q.",
"# v R r 2.<X*XOX}.2.2.*X( XX&.-.c.h > @ % o X X X ) H.@XG.G.H.H.H.@XeXz.1 @ @ ; ; ; < d p.G.x.@.@.j.j.] j.j.j.J f 0.0.w.j > t &.",
"E ^ R / OX2X*X.X5.( }.S.! 4.^ >.'.W q % % + # * o > x.@XG.x.b.b.H.@X@XM o @ o * * ; 9 M y.p.A.y.) @.j.h.j.j.] f 0.w.w.w.N C 9 p ",
"/ / 3.*X*X3XoX&.R 4.1X4.5.E R D.|...8 > % @ & & # o M G.@X@XqXqXeX@Xz.@ o $ @ $ $ * 9 M X.p.x.i.W ' g.g.k.g.L h a.q.f.9.7.7.9 # ",
"XXoX*XOX3X*X*.7 -.2X'.]._.6 r 4.,._ 9 q > @ & % # + 9 y.+XrXyXyXyXG._ + + $ $ @ $ % 9 h _ y.p.x._ W @.j.j.T.J j a.q.f.9.B a.B > ",
"8X9X9X5X.X2.7  .*X<X=.'.4.t 6 r s q q Q 1 @ % $ @ % 9 X.F.eXyXyX@XG._ & o @ * & * * 1 h M ` y.p.y.( #.+.U.U.r d q.a.f.q.N N 7.d ",
"*X*X.X].`.y ^ oX<X=.S.-.oXr n 4.....h q $ @ & # o * s y.F.+X&X@X@XG.` * + @ * 1 , , < 9 s M | p.X.~ P.P.$.%.G p B a.w.7.7.p B 7.",
"OXoXoX_.^ ( }.1X=.4.>.}.'.# ^ 4.'.c.m * % + * & X * d X.G.+X@X@X@XG.` , @ @ & 1 1 ; < p q s ` u.` ^ O.P.P.$.#.s k a.7.q.7.x x p ",
"5.4.( / ( S.<X-.=.2.'.oX0 r  . .=...m ; @ o # & o * j y.G.+X@X@X@XG._ < $ & & ; ; ; < 2 h s M e.` M T P.T #.;.p a B 7.7.x 7.a a ",
"^ 5.S.>.&.oXS.( ^ 4.5.^ # ! S.[ _ Q 9 & @ + & * & 9 M y.G.+X@X@X+Xx.N 2 , ; @ $ * * 2 d N s C r.C m Y $.#.,.` 8 = a x 6.6.x 6.x ",
"_.S.S.! _.oX( / =.^ R 6 % >.S.,._ s 1 * $ % + @ ; W z.X.G.+X+X+X+Xx.M s ; & o & ; ; 2 _ i.x.u.9._ R O.O.1.9.C N a a a 6.6.6.x z ",
"2._.^ *.oX=.! R 6 O . . n ,.F.z._ M 9 $ * % . # 1 Q |.=X-X#X+X+X+XF.z.M 9 @ X $ & 2 s _ @XuXeXi.M ~ O.%.` k d x x k a k l 6.x x ",
"! 2.( '. .0 +   .   : / 4.&XuX+XD.X.q , 9 + o % ; W $XgXvXvXmXNXhXgX=XX.m @ X @ * s V | &XkXZXfX[ ~ O.*.9.p k l l x N a a z z b ",
"7 t 2.-.0   7 E &.! 6 r =XkXjXsX-X..m Q m o o * 1 ) $X0XvXgXBXBXMXbX1Xc._ , o @ ; 1 X.z.-XjXDXDX=X#.o.' k a l l l 6.a.9.R e e e ",
"/ E 4.y + t S.4.>.3.n  .fXjXjXsX$XX.[ c.M o + ; h X.|.0XbXCXnXhXAXMXdX[.,.h * ; s s ) F.-XZXDXDXnX%./ B a k l l a u a j #.U Y Y ",
"! >. .. # 6 S.4.>.-.R $XjXNXjXsX6X|.[ X.m @ $ 9 [ c.6XbXBXAXsX6XAXCXvX4XD.[ 1 1 m X.z.D.pXFXDXFXZX5./ B a l l a = = u g *.I.Y Y ",
"6 2.R . : ! '.-.4.=. .pXjXAXCXBXnX4XQ s W , @ 8 X.|.pXnXBXFXhXfXAXAXnXsX1Xc.s s s z.$X+XsXFXFXFXHX}.y d = k k = u g i g L +.Y U ",
"r -.r # # R =.>.3. .S.hXMXFXCXBXBXsX;.m m > & m ,.$XfXnXCXFXFXAXAXFXCXmXmXsXM s M V F.-XsXAXJXFXHX6Xb V > a l u i g i i i L G S ",
"y ^ r   # R -.2.3.^ =XMXMXJXCXMXBX6X4Xz.M 9 9 ..+X=XnXBXAXFXFXAXAXFXFXCXBXNXD.s M ) z.jXMXMXFXCXJXNXB.A b s a a g g g L u u G U ",
"^ r r   r =.3.c.=./ 0XBXmXJXCXBXMX6X=X$XD...h X.+XsXMXCXAXFXFXFXFXJXJXCXCXCX-Xz.X.z.-XCXAXnXFXBXJXFXA.A A Z m 9 i i L L L i G Y ",
"_.7 6   . r  .&.n &.mXBXbXGXBXBXMXvXvXdXdXD.W z.=XMXBXBXFXGXFXFXFXJXGXCXCXNX6XF.$X4XfXNXFXnXAXBXJXJXJ.N.B.B.A 0 f i i g i f Y Y ",
"}.2.6   6 # 0 7 R _.BXMXvXCXBXBXnXbXBXBXbX[.z.=X6XnXCXCXFXFXFXFXFXJXJXCXCXCX4X|.=XsXNXCXSXmXCXMXGXJX-XN.C.B.} b v f u = @ J Y Y ",
"=.4. .# . . r E -.2XBXMXvXBXBXMXvXbXCXSXvX[.c.sXAXAXAXGXFXJXFXFXJXJXGXAXAXAXnX-X$XhXFXAXCXbXCXnXAXJX6X} A N.} Z v q g ' H o.Y Y ",
"0 =.'.(   O 0 R *.8XMXMXvXMXMXMXgXvXBXCXdX2XsXhXGXGXGXFXGXGXGXGXJXJXGXAXAXSXFXnXgXBXFXCXBXbXCXhXCXGXhXZ c v Z Z { v e O.T T Y Y ",
"&.6 y 7 ! / 6 r R 9XmXmXvXbXmXBXgX0XBXMXvXMXGXSXSXGXFXFXFXGXGXJXJXJXJXAXGXFXJXFXCXGXJXBXMXvXCXgXBXJXnXR O b Z c { { e Y T Y Y Y ",
"=.# # 4.4.&.^ r y dXbXbXvXgXbXBXhX9XbXvXBXBXSXGXFXFXFXFXGXJXJXJXJXJXJXAXGXGXKXJXFXJXGXCXnXvXCXsXCXJXNX[   # Z c c { G S Y Y Y S ",
"y O 4.2.-.&. .R y gXbXvXvX8XvXBXvX5XdXbXCXCXCXFXGXGXFXFXJXJXJXJXJXJXJXGXGXJXKXLXFXFXJXAXhXvXCXsXCXJXAXc.= . - c c U U e Y Y S 3 ",
". # }.( ( ( 0 6 E bXhXgXvX3XgXMXgX4XgXMXCXGXFXFXAXFXGXFXJXJXJXJXJXKXKXGXGXJXLXLXJXAXJXSXsXhXCXsXCXLXAX|.u = O c c U c c { I 3 3 ",
"+ # '.R y &.E n ( bXhX9XvX2X9XMXsX4XvXBXGXFXFXAXGXFXJXGXJXKXJXJXJXKXLXGXGXKXLXLXLXAXFXAXsXhXCXsXAXLXAX-Xf = . - c U : v { v 3 3 ",
"# # =.y R >.( ^ :.gXnX5XdX1X5XMX4X4XbXCXGXFXFXFXFXJXJXJXJXJXJXJXKXLXLXFXFXKXLXLXLXFXAXAX6XgXCXhXFXLXAX4XW r O # c v 0 Z { { t 5 ",
"# # r t y -. .( _.5XnX4X8X2X3XMX=X5XMXCXAXFXFXFXJXKXKXJXKXLXLXLXLXLXLXJXFXLXPXPXLXJXFXAX6XgXAXnXHXPXCX6XR c O : 0 c 0 { E v r 0 ",
"# # + # # E R R *.S.oXS.S.5.S.oX,._.oX*X*X1X1X1X2X2X2X2X2X4X3X4X3X3X5X2X1X3X5X5X3X2X1X*XD.}.*XoX2X3X*X[.R # O - - : 0 t 7 q q 6 "
};
