/* XPM */
static char *d900e59536db4585f72c790e671e882cbaBRiT7CSZ88ZXDV[] = {
/* columns rows colors chars-per-pixel */
"66 66 256 2 ",
"   c #090602",
".  c #140C03",
"X  c #1B0D04",
"o  c #170D09",
"O  c #12110D",
"+  c #1C140C",
"@  c #1A1309",
"#  c #1A1A15",
"$  c #0E150B",
"%  c #23150C",
"&  c #27170C",
"*  c #241B13",
"=  c #2B1D14",
"-  c #281B17",
";  c #321C16",
":  c #281008",
">  c #1B2319",
",  c #23221C",
"<  c #2C231B",
"1  c #292418",
"2  c #33251B",
"3  c #37261A",
"4  c #3F2F14",
"5  c #15182B",
"6  c #2F1A2E",
"7  c #1B2723",
"8  c #192D2E",
"9  c #2A2B26",
"0  c #292927",
"q  c #372A25",
"w  c #33322D",
"e  c #3A352A",
"r  c #2B2838",
"t  c #372639",
"y  c #283939",
"u  c #3B3A35",
"i  c #393735",
"p  c #293129",
"a  c #471417",
"s  c #4F2E18",
"d  c #491B2F",
"f  c #452A27",
"g  c #463529",
"h  c #57362B",
"j  c #472936",
"k  c #582837",
"l  c #483B36",
"z  c #583937",
"x  c #562926",
"c  c #67392A",
"v  c #683835",
"b  c #773A37",
"n  c #6D312D",
"m  c #63291D",
"M  c #334735",
"N  c #43433D",
"B  c #48463B",
"V  c #56463A",
"C  c #574C2A",
"Z  c #684639",
"A  c #784839",
"S  c #795539",
"D  c #694F32",
"F  c #776538",
"G  c #32354A",
"H  c #493748",
"J  c #55364B",
"K  c #6E374B",
"L  c #374647",
"P  c #334953",
"I  c #3A5667",
"U  c #334C69",
"Y  c #3A6665",
"T  c #454541",
"R  c #4B4B45",
"E  c #4D4D49",
"W  c #484747",
"Q  c #574A46",
"!  c #4D5447",
"~  c #52524D",
"^  c #5B5449",
"/  c #454956",
"(  c #55495A",
")  c #485458",
"_  c #555551",
"`  c #5B5A55",
"'  c #5D5D5A",
"]  c #585855",
"[  c #664947",
"{  c #774944",
"}  c #655549",
"|  c #765949",
" . c #684957",
".. c #675B55",
"X. c #775A55",
"o. c #774559",
"O. c #57634E",
"+. c #63625D",
"@. c #6A6458",
"#. c #786457",
"$. c #75714D",
"%. c #454A65",
"&. c #495669",
"*. c #585966",
"=. c #4E5670",
"-. c #705467",
";. c #586569",
":. c #576777",
">. c #4D6B73",
",. c #656561",
"<. c #6A6A65",
"1. c #6D6D69",
"2. c #696665",
"3. c #766B67",
"4. c #6E716A",
"5. c #72726D",
"6. c #787369",
"7. c #676778",
"8. c #757572",
"9. c #7A7A75",
"0. c #7D7D79",
"q. c #797674",
"w. c #706D79",
"e. c #843A34",
"r. c #8C533D",
"t. c #836B3C",
"y. c #873C54",
"u. c #875946",
"i. c #955A49",
"p. c #875957",
"a. c #8C4E52",
"s. c #A25A49",
"d. c #87644A",
"f. c #886857",
"g. c #966B59",
"h. c #8B735A",
"j. c #997759",
"k. c #906B4B",
"l. c #A56953",
"z. c #985875",
"x. c #8D506E",
"c. c #856966",
"v. c #877568",
"b. c #987867",
"n. c #847D77",
"m. c #987C74",
"M. c #916672",
"N. c #A8736E",
"B. c #A45976",
"V. c #7C807A",
"C. c #8F8752",
"Z. c #A58F5D",
"A. c #978966",
"S. c #83827D",
"D. c #8A8478",
"F. c #998577",
"G. c #91906C",
"H. c #A7816A",
"J. c #A88878",
"K. c #B29078",
"L. c #9CA172",
"P. c #B4AB6B",
"I. c #A8A255",
"U. c #C3BB76",
"Y. c #CAC172",
"T. c #587588",
"R. c #536E87",
"E. c #687A89",
"W. c #72798F",
"Q. c #5E709B",
"!. c #927087",
"~. c #A97087",
"^. c #6A8996",
"/. c #768899",
"(. c #6F8890",
"). c #7895A7",
"_. c #728DAA",
"`. c #598A99",
"'. c #858581",
"]. c #8B8A85",
"[. c #8D8D89",
"{. c #888783",
"}. c #948B88",
"|. c #8F908A",
" X c #93928D",
".X c #9B948B",
"XX c #959591",
"oX c #9A9A95",
"OX c #9D9D99",
"+X c #989794",
"@X c #8A8A95",
"#X c #A79488",
"$X c #B79786",
"%X c #A69C96",
"&X c #AE918C",
"*X c #9DA09B",
"=X c #A2A29D",
"-X c #A8A49A",
";X c #B7A498",
":X c #B3A98C",
">X c #899BAD",
",X c #85A5B7",
"<X c #95AAB8",
"1X c #9AA2AB",
"2X c #A5A5A1",
"3X c #ABABA5",
"4X c #AEADA9",
"5X c #A8A7A3",
"6X c #B3ACA7",
"7X c #B3B2AD",
"8X c #BCB6AD",
"9X c #B5B6B1",
"0X c #BCBAB4",
"qX c #BBB9B6",
"wX c #ACAFB4",
"eX c #A39FA3",
"rX c #C39A88",
"tX c #C7A798",
"yX c #CDAB97",
"uX c #C2B8AD",
"iX c #D6B5A5",
"pX c #C4BDB7",
"aX c #CDAEA4",
"sX c #BDC2B7",
"dX c #C3C2BD",
"fX c #CCC5BC",
"gX c #C8C4B9",
"hX c #D1CCB7",
"jX c #DBD3B1",
"kX c #AEB6C3",
"lX c #90ADC3",
"zX c #C7B8C2",
"xX c #CCCAC4",
"cX c #CAC9C4",
"vX c #D3CCC3",
"bX c #D2CCC9",
"nX c #D4D3CC",
"mX c #DAD5CC",
"MX c #D7D5C9",
"NX c #DCDBD3",
"BX c #DCD9D4",
"VX c #CBCFC7",
"CX c #E2DDD4",
"ZX c #E5DBD7",
"AX c #E6DACC",
"SX c #DDE4D7",
"DX c #E3E1D6",
"FX c #E5E3DB",
"GX c #E9E6DD",
"HX c #E9E9DD",
"JX c #F2EADC",
"KX c #EDE9E3",
"LX c #E9E8E2",
"PX c #F2EDE6",
"IX c #F6F3E2",
"UX c #BFC1CE",
/* pixels */
"N u i u u 7X=X2.[.oX].[.2.].0._ 4X=X5.+.qX=X0.].[.+.-X7X+X].@.q , 9 i L %.%.%.&.;.M $.:XL.G.L.C.C k.A.| Z f.p.g.[ j t G G G / r r t ",
"N u E ].=X5X0.OX9XcXNXdX%X9.'._ 9XS.1.2.dX+X+. X<.4.7X.X=X6X.X1., # y P U =.R.7.L > O.G.$.C.A.F C C.j.c s u.D b.[ 3 t r G r 5 5 5 r ",
"i u +XS.qX].+XcX9X1.,.q.].8.R 5.oX,.' 4X=X4Xu [.2.9.5X5X7XdXoX0X4.7 / W._.W.E.7.7 > C $.h.A.j.S t.j.k.h s d.D b.p.h J t t 5 5 5 7 0 ",
"i S.0.pXS.0.7X5X] 5._ u ' XXN 0. X~ S.qX4XOXT ] {.2.pX%X9X4X5XqXV.p ;.^.E.E.:.P 7 ! e s k.Z.k.S i.i.u.| D d.S j.d.[ J 6 6 5 5 r 0 , ",
"u S. X7XS.OX4X' XXn.# # S. X9.+X+.+.9X5X4X0.1.1.4X~ 9X5X=X7XqX9X*Xy &.R.T.R.>.M y 5.$.F Z.P.t.D r.l.l.g.d.S d.b.f.| J t t 6 r G t i ",
"n.u [.=X+X=X+.].XX_ O 0 q.9.,.' ~ OX4X+X[.'.].3X+X5X+.4XcX5X9XsX*XL =._._.:.P y L N G.C.P.P.D c i.rXN.N.N.u.d.k.d.v. .t G G G 0 q V ",
"5X` XX[.=X9.5.XX1.w O , , u , w  X4X[.S.+XXXOX5X7X'.'.].[.*X+X8.G ) W.Q.R.I L 8 ) 0 @.A.U.Z.D { b g.a.b a.b c x Z X. .r t G t q } $.",
"+XE oX'.qX2.'.8.E _ T w # 9 1.4X5XXXS. XOX+X9X5X9X[.,.8.8.' i p ) E._.Q.=.I G 7 L y B C.iXZ.D a v { y.a.a.a.{ Z f l H i i t ; } C.C.",
"OXR +X[. X'  X~ 5.+.8. XOX7XqXXX5.S.[.[.5X+X X|.[.XX' <.].9.w y :.T._.R.Q.E.(.P 8 y ! @.yXd.{ n p.a.B.B.o.K K x f l - < q g #.L.C.I.",
"].u [.S.[.+.'.u 2.XX]. X+X|.2.T , w +.S.,.n.5X+X+X8.0.5X4X+XW L >.^.`.Q.).>X7.L G :.,.V D { a.y.k M.x.o.o.J k d ; : q q l F.A.C.P.P.",
"1.w +Xn.8.E 1.u S.9.9.T +.] 1.8.5.~ T 0.5.{.7X+X] T XX5X5X+XT ) Y `.`._._.(.L G G ( W Q v a.B.x.K J  .J d J k q J X. .X.Z C G.P.P.P.",
"' 9 +X].'.2.5.w W ' ,.` ~ ].7XdX5X,.OXOX'.5XOX|.,.{.3X+X XoXn.L >.`.`.).^.I r G 7. .-.M.p.K B.~.o.J J H H J z X.p.m.&Xp.| C $.P.P.C.",
"~ w ].'.S.+.1., T 5X X5.R 7XpX+X' +X7X=X+X5X4X%XXX.. X6X-X}.3.u w.^.).^.&.y ) w.M. .K x.z.K x.K K ( H J  .l z m.$XJ.N.{ | D C C.C.I.",
", , 8. X[.+.q., , 8.4X8.W dX4X' 5.7X5X*X+XdX0X3X,.q.5X+X.X.Xn.l *.(.E.:.) ;.(.}.-.x.x.~.~.x.o.J J H J ( j l X.H.H.u.b.g.g.d.C t.P.Y.",
"8.' ,.0.S.' {., 0 ' =X].i OX X' |.9X5XVX+X=X0Xn.3.6X3...3.Q 3.l J -.~ ;.V.oX'. .!.z.y.z.~.z. .H / / ( H j | g.K.H.H.S g.g.{ d.S F I.",
"2.,.2.XX X+.XX0 u +X7X+X5.' 5X5.5.sX4X*X4X=Xn.n.5X6.l 2 B V q = f [ l u ' 2.,. .z.~.z.x.!.-.( / P &.H H Q X.H.j.k.t.c g.N.A c j.t.I.",
"3X0.0.].oX1.+XN 5.4.8.XXXX` q.+X5.9.sX7X5XoX5.S.<.e 1 1 e g 3 3 ; l l l u B .. .M.~.B.x.-.-.( %.%.=.*.J H  .b.b.k.s u.K.l.A n k.t.C.",
"7XOX{.9.[.5.XX` 9.].].7X9X5.u 2.+X1.8.5X9X1.V.S.e # % 1 2 e g g 3 & < 2 q q q [ M.~.N.z.-.*.*.:.:.E.W.7.H l Q X.Z c u.j.g.u.b i.k.h.",
"qX*X1.1.'.` 9.5.'  X0.=X9X].u S. X5X].S.S.4.{.l 1 @ * & % 3 f f g ; & o * - : f o.~.~.M.3.w.7.E.).^.T.:.&.W l B g | f.k.k.S A g.h.S ",
"dXOX] ,.].E 0.V.R XXV. X7XXX~ S.4X7X].5.+.4.~ w + @ + % 3 Z X.X.X.} 2 + - - ; = f c.!.c.W.@X(.^.).^.^.^.(.;.E N g f.h.k.d.A S j.J.| ",
"7X5X1._ 0.` *X9.5.{. X'.9X5X2.0.+X+X{.2.q. Xl 1 @ % X 2 #.#X$X;X$XJ.V 3 - * < ; ; [ n.}.+X@X(.,X^._.).).(.:.) u Q v.g.g.i.r.i.g.j.D ",
"=X5X]._ 5.+.4X[.+X1.oXS.*X4XS.5X+X}..X}.6Xq.< % + % % V #XaXaXtXiXtXF.l @ * * < - Q }.2X1X>X).<X,X).).).).).E.W ..m.N.l.i.i.l.j.j.$.",
"+XOXOX+.9.5.=X4X*X5.+XoX X5X|.5X0X8X4X+X{.u < * @ X 3 c.$XtXiXyXiXiXtX#.< , , * - Q  XeX1XwX<X<X).).,X,X).,X/.( -.m.N.i.i.l.j.j.F h.",
"S.{.OX' 8.S.].7X5X[.V.5X].5X5XXXpXpX7X|.~ # * + < & V J.;X;XiXiXiXiXtX#XQ 1 < * < w q.OXwXkXwXkX<X,X,X,X).,X>X*.q.c.Z c g.H.j.j.F Z.",
"9.~ {.` 1.9.9.4XXX7X5.9XOX5X9X X4XcXqX].0 # O . @ = V v.J.tXiXiXiXiXtX#X#.* < 1 * - i 8.5XkXkXkXkX>X,XlX,XlX>X:.*.Q [ { { f.b.j.F P.",
"9.R 1.] ,.9.S.0.OX4Xq.=X7X=X7X=X=XcXqX'., O .   * % V #.| b.$XiXiXK.v.f.#.1 * < * + q Q 6XzXwXcXkX<X<X,X).,X_.=.7.q.X.X.X.#.h.C C.Y.",
"' R E _ 4.8.S.9.*X=X[.].sX=X3X5X=XcXsX0.#     . o 2 3.v.| b.J.tXyXH.b.v.F.} 2 * * % & l %XzXpXzXUX1X>X<XlX>X/.E.W.W.3.2.^ l Q } P.P.",
"+XE 9 N ' 0.5X XOX X4X'.9X5X*XOXOXcXdXS.0 .     % B #.} Z b.J.rXtXH.f.Z X.V & = * = X c.%X6XzX7XkXkX1X/.).>X>X>X/.;.,.E i p u |.:XL.",
"7X'.T p ] 1.S.+X=XV.qXXX5X9X+XoX].7X0XS.i # .   + @.F.J.K.$XK.$XrXK.K.F.J.#.: & = & = }.;X%XuXpX5XwXwX>X/./././.).(.).(.(.(.E.1XXXV.",
"qX5X+X,.~ ,.].'.5X8.5X5X*XqX+X=X9. X].' 9 + o   X v.&X$XyXyXJ.K.rX$XyXtXtXm.; & = & 3 } %X6X6X6X2XOXOX1X>X(.E.^.^.^.^.^.^.^.^.E./.E.",
"5XOX|.] ~ ,.].4.7XV.].4X=X9XOX|.q.q.` 9 + o o . X c.;XtXiXiXH.K.$XrXiXyXtXm.3 : ; = 3 < 3.%X-X+XeX%X}.!.!.@XW.E.:.R.I >.T.E.,XlX,X,X",
"+X'. X5.' 2.5X5.4X Xq.5X5X4XOX5.q.2.B - + + o . = } &XtXiXyXN.rXrXK.yXiXtXf.& ; 2 2 3 q g ..#X#X}.}.&X~.!.w.w.7.7.:.:.:.:.&.U U >.R.",
",.5.V.5.R 9.4X[.4X[.5.5XOXXX2X+.` ..e < ,     - - l J.tXyXyXJ.K.$XrXiXyXtX[ X = 2 3 g f V f.#X#X!.M.~.!.!.-.-.3.-.3.0.*.*.2.;.:.T.>.",
"O _ ' ` ~ +X4X XOX'.9.XX{.'.XX] ^ ^ 2 * + +       2 v.;XtXtXrXtXtXrXyXtX#XV & % - < q g V f.J.F.3.-.!.z.z.x.M.M.c.[ Q [ j j # 7 ;.E.",
", T T 0 1.XX4X+XXX'.,.=X5.0.XXE D.@.< < + # o . . & X.;X$XJ.J.J.$XK.$XtXm.q X + < < = 2 g #.m.J.3.X.x.z.x.y.z.z.M.z z p.p.c.l q l 1.",
"T ~ R `  X5X5XOXS.1.5.=X+.,.5.E }.3.e 9 1 + O * % X g F.$XH.b.b.H.H.$X$X} X + o * - - q g #.v.F.m.[ o.x.B.x.z.z.K x a.g.b.p.{ z 3 l ",
"] ] 5.|.5X7XoXq.E ' 5XS.9._ R 2..XD.R * < + + * * X X | $X$X$X$X$XrX$Xv.= . < . + * * q g | h.F.F.[ z o.z.x.z.x.v b N.i.N.{ u.p.3 o ",
"XX[.5X+X5XOX0.u R XX=X9.+X~ 9 ' n.6.B , u # + 1 % = X g b.$XtXyXiXyX$X| X X 1 @ + % % < g } #.b.b.f.[  .-.x.!.M.k b l.s.N.i.r.f.[ = ",
"9XdX7X7XOX[.R u {.0X9.S.].~ . u B N i l E , + - o & % f f.K.tXaXyX$XJ.| & X + * + * 1 2 g V } #.h.j...` 7.W.!.!.f v l.l.l.r.c A | h ",
"OX5XoX X|.~ w {.7X9.4.0.q.5.# @.` ` R l q # * - @ X = V f.J.$XrX$X$XJ.X.= % o - < < < = e q V | k.b.} ] :.:.:.*.q h i.s.s.i.c s v | ",
"+XOX+XXX1.W 0.4X'.,.'.2.3XN w 3. XD.6.9 , * o < @ X = h f.J.K.$X$X$XK.| 3 % X % < q 2 2 g g g Z d.h.Q / >.R.R.;.T h A s.r.s.A c Z Z ",
"OXS.9.` _ 5.+XXX' '.5.4X<.* ` @.@.6.@.9 * @ + - @ X 3 Q c.F.#X$X$X$XJ.} 3 = * * - 2 = = 3 f f h d.#.^ ) >.T.I 7...f s u.r.i.b A s a ",
"N 5.2.5.2.XX2X' ,._ ].4.i < 6.@.....B < * . % * - + 3 V c.#X&X#X&X&XF.} q 3 * o % * = 2 g V h g | f.^ W &.&.:.q...; a m r.e.e.b b v ",
"9.[.[.' <.+X8.' ' 8...` + N }.D.@.Q g < - @ + + % 2 ^ @.3.F.#X#X;X#Xm.[ q q < & % & = 3 V #.f.| #.#.Q T *.) q.3.[ h s s m r.a.b b v ",
"0.q.,.R oX].' ~ _ 0 ,   + @.n.D.@.V l * - < @ . % q @.}.#X#X#X#X#XF.m.@.l q + . & & 2 3 V b.;X;XF.} Q E ' 3.X.K Z Z Z s m n a.b v v ",
"+.[.E 0.XXT w 7     O u ^ D..X#XD.@.^ * - < @ o < < ..%XgXgXuXuXgXuXuX%X3.B *   . & e l } F.iXjXpXn.l ' ..3.[ x n A c A x h x v [ } ",
"9 E ,.'.M #   7 i i @ e 6.8XvXgX;XD.} g l 2 o + - q @.-XfXfXfXDXZXmXvX-X6.Q < . . % e V #.J.hXAXZXpX` _ @.} v m n n b A #.V z f w r ",
"N w 9.+.# O ' 8.q.q.] , .XvXvXuXuXD.Q ..6.q . @ < l 3.%XgXvXfXMXvXbXmX0X.X6.l + < = 2 V v.:XhXAXJXCX*XB @.Z x n b b n v #...^ w L P ",
"1.` 0.0 # 9 ].0.5.5.~ +.0XVXfXpX6X-X..3.6.3 X % g } n.6XgXMXCXgX8XGXCXpX6Xv.^ q 2 q ^ } v.%XhXJXZXFX4X! } V x b b x a a ; J 2.*.U U ",
"w 5.'   O 0 5.V.5.5.~ S.dXNXNXnXxX8XD.V V l & = g @..XuXfXCXDX0X0XBXCXfX8X#Xv.e 3 g X.F.F.-XmXCXCXLXxX+.V h x v v a a k k k  .w.U U ",
", 0.R O 0 E S.1.9.5.' 7XcXBXDXmXCXgX Xl g Q * o V 6.;XfXvXmXFXVXxXBXFXmXfXpX;XV l l ^ #X%X6XMXKXGXKXxX@.C 4 : A x a d k k J [ ( P G ",
"u ' w O O , ' 8.q.' 1.cXnXNXGXBXmXxX5Xq.^ e 2 3 #.n.;XvXMXmXFXFXFXDXGXCXMXmXvXv.g V B @.%XfXvXGXZXZXIXL.D C s s z f k K k k d t G G ",
"T E u   9 2.q.1.q.~  XmXBXNXFXmXBXvX6X%Xn.Q l l D..X8XvXCXDXDXFXFXFXGXDXCXZXZX6X} Q } 6.pXNXhXZXZXZXJX6XA.F s C h f k J K K k j G P ",
"2.0 9   # N 4. X,.~ 4XnXmXBXNXnXNXdX7X3X6X.X..l n.%XhXmXmXFXCXDXSXGXGXFXDXmXCXuX}.3..X6XmXDXbXCXZXZXIXgX$.$.C.F g 3 f d k K k j G U ",
"'.N 0   O 9 R M N ~ qXVXVXBXGXBXmXcXBXvXvXuX6.@.}.6XCXmXBXFXFXGXFXFXHXHXCXMXCX8X[..XpXuXfXJXCXcXAXZXJXMXL.C.G.A.} e q j k d 6 H U U ",
" X].w   # # 9 w R 8.nXBXcXnXDXVXBXcXnXBXCX0Xn.D.pXgXmXmXCXKXFXGXHXSXFXLXNXNXJX0X.X%X6XmXGXDXxXCXAXNXHXhXG.V.L.V.} B B q 6 d 6 H &.U ",
"~ 9.9.u O   w E 2.+XBXnXcXxXNXVXnXdXVXFXNX7X[. XxXNXFXDXCXGXLXFXFXFXHXFXCXCXDXNXgX-X0XNXFXmXbXBXMXMXHXVX-X^ } @.O.O.B w H *.%.&.I U ",
"w _ 9.,.O # 9 u _ +XmXnXcXcXBXVXnXqXVXNXxX0XpXvXMXCXFXDXFXGXLXGXFXFXHXFXCXDXFXCXNXfXmXGXFXmXxXnXVXgXHXSX-X< 2 ^ ^ B O.B y &.&.&.I U ",
"q.# , w +.1.9 9 u +XnXbXcXdXnXbXnX9XxXNXfXfXNXLXCXFXFXFXFXFXGXGXGXFXGXGXCXFXGXFXGXCXGXGXCXmXxXnXMXsXSXFX2X# * } B M O.O.8 P I I U U ",
"] , 0 '.9.2.` R 0 OXbXxXcXqXcXnXnX7XpXvXxXMXNXNXFXFXFXFXGXFXGXGXGXFXGXGXCXFXGXGXFXFXLXFXCXnXcXmXVXsXLXLXqXq . 1 B M M O.y L I U U G ",
"i O 0.1.<.,.' E 0 5XnXcXcXqXqXnXmXqX7XpXMXDXCXDXFXDXDXGXGXGXGXGXGXGXGXGXCXCXGXLXKXLXLXFXFXbXpXmXfXsXLXLXbX] + . M M M L M M I P 8 5 ",
"  0 ].,._ 2.u 0 u 3XnXdXdXqX7XnXxX0X8XdXNXGXCXGXDXDXDXGXGXGXGXGXGXGXGXGXFXCXGXKXPXKXFXFXLXxX0XBXvXdXFXFXbX3.q < $ M M M p L &.G 5 5 ",
"0    XW i ,.~ T ~ 4XnXqXqXqX5XbXdX4XqXMXCXFXCXCXDXDXFXGXGXGXJXGXGXGXKXKXFXZXLXKXLXKXZXCXLXcX0XNXcXvXKXPXvXv.< #   p M M p ! ;.L 5 5 ",
"# # ,.M N q.' ` +.7XnX9X9XqXOXVXcX5X0XnXmXFXGXCXDXFXGXFXGXJXKXKXJXGXKXKXGXFXLXKXKXPXLXNXZXcX7XNXvXmXPXKXvX}.e w $ $ M M p ` <.] w 0 ",
"# 0 9 u w <.,.' n.OXVXqX4XqX=XcXqX-XfXMXNXFXFXFXGXGXGXGXLXLXKXKXLXKXKXKXGXGXGXPXPXKXLXFXCXcXqXmXmXNXPXKXxX+XN w $ 7 u p N ! B R u 0 ",
"O O O # O E R T ` 5.+X[.9.].4.XX{.5. XoX=X-X5X-X3X3X3X3X3X3X4X4X3X4X4X4X5X=X3X7X6X4X3X-X=X[.D.%X.X%X7X7X+X8., $ $ # p > w w 1 w i , "
};
