/* XPM */
static char *d45b5ce9d60446f3d9b5f1b09869b448UQFmVJg7XCaVrcwY[] = {
/* columns rows colors chars-per-pixel */
"64 64 256 2 ",
"   c #1B1915",
".  c #0E0D07",
"X  c #2A1910",
"o  c #36291A",
"O  c #33332B",
"+  c #172730",
"@  c #4E2E14",
"#  c #483928",
"$  c #51392A",
"%  c #763429",
"&  c #6F2E23",
"*  c #663C16",
"=  c #3E4438",
"-  c #494637",
";  c #574936",
":  c #5A4831",
">  c #644C34",
",  c #67533A",
"<  c #735032",
"1  c #78603C",
"2  c #223748",
"3  c #364A56",
"4  c #195B7D",
"5  c #595446",
"6  c #4B5456",
"7  c #545A58",
"8  c #4A4C45",
"9  c #675B49",
"0  c #745B45",
"q  c #675E51",
"w  c #754F42",
"e  c #6A624B",
"r  c #7A6349",
"t  c #6C655A",
"y  c #6A6456",
"u  c #736554",
"i  c #736B5C",
"p  c #786A56",
"a  c #79735C",
"s  c #4F5D65",
"d  c #586667",
"f  c #546871",
"g  c #6D6D63",
"h  c #646A69",
"j  c #746D62",
"k  c #7A6E63",
"l  c #7C7365",
"z  c #7B756B",
"x  c #7D796B",
"c  c #747367",
"v  c #6C7373",
"b  c #68767A",
"n  c #727573",
"m  c #7B7C74",
"M  c #777978",
"N  c #68706E",
"B  c #5A615F",
"V  c #885036",
"C  c #94633B",
"Z  c #AA6F3B",
"A  c #935C43",
"S  c #86674B",
"D  c #9A6A44",
"F  c #9A764B",
"G  c #897459",
"H  c #9C7B54",
"J  c #977959",
"K  c #8C6C52",
"L  c #A87547",
"P  c #A17D55",
"I  c #A37E5B",
"U  c #AA7C58",
"Y  c #AE7547",
"T  c #827B6C",
"R  c #867866",
"E  c #977C63",
"W  c #847D73",
"Q  c #887F74",
"!  c #A27B63",
"~  c #BB7F67",
"^  c #7B827A",
"/  c #6C807E",
"(  c #A5825C",
")  c #AA845D",
"_  c #A78459",
"`  c #B88558",
"'  c #B5804C",
"]  c #9A846A",
"[  c #8B8375",
"{  c #8C847A",
"}  c #878578",
"|  c #938B7C",
" . c #978976",
".. c #97907B",
"X. c #A38264",
"o. c #AB8563",
"O. c #AD8A65",
"+. c #AD8B6B",
"@. c #A5866B",
"#. c #B38A65",
"$. c #B28D6B",
"%. c #B78A66",
"&. c #B8936C",
"*. c #A68B75",
"=. c #B58D74",
"-. c #A99379",
";. c #B49373",
":. c #BB9573",
">. c #BB9B7B",
",. c #B69779",
"<. c #A9946C",
"1. c #A69166",
"2. c #C3966A",
"3. c #C69B74",
"4. c #C48D72",
"5. c #C8A37B",
"6. c #D6A97D",
"7. c #C48B5E",
"8. c #467285",
"9. c #6A7A85",
"0. c #707A84",
"q. c #2B6B8E",
"w. c #778688",
"e. c #6B8797",
"r. c #7A8B97",
"t. c #7A949C",
"y. c #6A848B",
"u. c #6C93A7",
"i. c #7C9CAC",
"p. c #7796A7",
"a. c #7B9CB2",
"s. c #6995AF",
"d. c #7DA4B6",
"f. c #7CA0AD",
"g. c #4D8196",
"h. c #65A3C5",
"j. c #898A83",
"k. c #948C83",
"l. c #968D87",
"z. c #8A918A",
"x. c #9B9384",
"c. c #9A958B",
"v. c #899698",
"b. c #989A96",
"n. c #848E94",
"m. c #A69988",
"M. c #B79A84",
"N. c #A29D93",
"B. c #A69B93",
"V. c #A08E81",
"C. c #9CA197",
"Z. c #AAA28E",
"A. c #BBA289",
"S. c #A8A498",
"D. c #B4AB9C",
"F. c #B8A796",
"G. c #BAB39F",
"H. c #879AA6",
"J. c #8D9EAB",
"K. c #88A4AB",
"L. c #98A4A7",
"P. c #83A4B4",
"I. c #85AABB",
"U. c #8AACBC",
"Y. c #88A6B6",
"T. c #97AAB8",
"R. c #97B3BD",
"E. c #8EB0BC",
"W. c #A8AAA6",
"Q. c #B6AEA3",
"!. c #AAB2AA",
"~. c #BBB6A7",
"^. c #A7B4B9",
"/. c #B6BAB7",
"(. c #A9ADB5",
"). c #C5A789",
"_. c #D5AC87",
"`. c #D9B48E",
"'. c #C5AB94",
"]. c #D4AB93",
"[. c #CAB49A",
"{. c #D6B798",
"}. c #C3B28B",
"|. c #E3BB96",
" X c #E0B68C",
".X c #C6B8A8",
"XX c #D7BCA6",
"oX c #C8BBB3",
"OX c #C3AEA2",
"+X c #D0A794",
"@X c #E5C39C",
"#X c #CBC2AD",
"$X c #D8C4A9",
"%X c #CCC5B5",
"&X c #D8CBB7",
"*X c #DDD3BE",
"=X c #E6C6A8",
"-X c #E3CCB5",
";X c #E7D3B8",
":X c #F6DBBA",
">X c #F2CCAE",
",X c #EBD2AE",
"<X c #8AAEC2",
"1X c #86ACC3",
"2X c #8CB3C8",
"3X c #94B3C5",
"4X c #93B5CB",
"5X c #9CBBCB",
"6X c #98B8C8",
"7X c #93BAD2",
"8X c #9BBED3",
"9X c #95BBD5",
"0X c #93B2C7",
"qX c #A5BAC7",
"wX c #ADBCCC",
"eX c #9BC3D8",
"rX c #9CC0CE",
"tX c #A8C2CB",
"yX c #A6C7D9",
"uX c #B6C8D6",
"iX c #B6CCD1",
"pX c #9CCBE2",
"aX c #AAD2E5",
"sX c #B1D3E4",
"dX c #BDE2F2",
"fX c #C8CCC6",
"gX c #DAD7C7",
"hX c #CAD5D6",
"jX c #D7DBD6",
"kX c #CECFC9",
"lX c #E4DCCB",
"zX c #E8DAC6",
"xX c #F6DEC4",
"cX c #E7DED3",
"vX c #E8E3CD",
"bX c #FAE5C9",
"nX c #EBE4D3",
"mX c #EBE8D8",
"MX c #F2ECDB",
"NX c #F6E9D7",
"BX c #FAF4DB",
"VX c #EEF0D8",
"CX c #CFDDE2",
"ZX c #D7ECF2",
"AX c #E7EAE5",
"SX c #F6EEE2",
"DX c #EDF2EC",
"FX c #FBF4E4",
"GX c #FEFBE4",
"HX c #FEFBEC",
"JX c #F7F4E8",
"KX c #ECFCFD",
"LX c #E9F6F7",
"PX c #F3FEFE",
"IX c #FBFDF6",
"UX c #BFC0BA",
/* pixels */
"PXPXPXDXjXkXm m m m m m m m } } } j.| [ | x..X~.c.N.JXHXHXHXHXFXJXIXIXJXJXHXHXJXJXFXFXFXJXJXJXJXJXJXHXHXBXGXBXGXGXVXGXHXFXBXBXGX",
"PXPXPXLXjXjXz.n M M m M m m m m m m } | { [ x.Z.c.b.JXIXJXJXHXSXJXHXJXSXHXHXMXnXmXmXMXMXMXVXMXMXAXJXSXMXBXBXBXGXVXvXFXVXVXGXVXvX",
"PXPXPXPXAXjXW.n n n n n n n m m ^ m } } } } | k.c.c.AXIXDXDXIXmXAXHXJXMXFXMXvXvXvXvXvXvXnXvXnXmXnXMXnXmXMXnXMXGXvXvXBXnXVXvXvXvX",
"PXPXPXPXDXjX/.n n v v v v v n n c c x m W } } } ^ } mXIXDXDXDXmXmXFXmXnXGXmX*XgXzXgXzXzXlXgXlXzXzXvXzXvXnXgXmXmX*XnXzXzXzX#X*XVX",
"PXKXKXPXKXhXfX^ v N N N N N N N c c x x z l l x x T mXHXAXAXSXcXMXFXnXcXBXlX&X&X&X&X&X&X*X*X*X*X-X-X;XgXgXgXnXlX*XnX-X-X&X$X$X$X",
"PXKXKXLXPXjXkXv.d d d h h h h h h h N g g c z i i i lXBXnXMXSXlXcXNXcXlXNX*X#X%X#X#X#X%X%X%X%X%X$X$X&X&X&XgXgX%XlX&X$X&XXX#X#X#X",
"KXKXKXLXKXAXhXW.d d d B B B B d B 7 d v W.kXfXc.x.Z.nXGXNXNXNXNXHXHXMXnXnX.X~.~..X.X~.~.~.~.~.#X%XgXFXHXHXHXSXSXFXlXgX%X~.D.~.&X",
"KXKXKXLXLXLXhX/.d d 7 6 6 6 6 6 h z.!./.iXfXAXnX*X&X'.M.M.M.m.m.D.gXFXGXvXD.D.~.D.G.~.~.~.#X&XgXHXHXlX.X~.oX&XNXHXHXHXFXSXlXnXGX",
"KXKXLXLXDXDXjX/.h 6 6 7 N j.b.W.~./.!.S.gXHXoXm.*.J I o.o.O.X.E ] Q.%XMXHXnX&XB.Q.nXFXmXmXFXHXHXFX&XF.A.M.M.,.).;XnXNXFXHXGXGXBX",
"KXKXPXPXPXPXDXjXfX!.W.W.S.C.c.j.| [ z %XHX%Xm.-.*.X.%.%.U I O.,.*XFXFXNXFXHXHXgXFXHXHXHXHXHXFXNXlXzXNXxX'.$.@.$.M.).XX;XzXGXvXMX",
"PXPXLXAXjXkXUX!.b.z.} m c g c j R R R m.%XnXcX.X*.J K K ! ).=XxXGXGXHXHXHXGXNXBXGXHXFXFXGXFXGXHXGXGXGXNX;X{.+.J H ! @.=X;XzXFXcX",
"(.L.b.j.} m m z g c g g i j } | ]  .m.m.x.S.lXBXm.M.'.{.>XbXbX:XbXbXbX:XxXbX;X-XbXbXxX:X;X;X;X:XbXxX;X;X-X=X{.$.P F F X.'.bXHXmX",
"n N g j x T x j j x x x [ | x.x...-.m.m.B.m..XBX&XzXxXxX:X=X=X{.`._.6._.|.|.|.|.`. X_.5.3.3.3.2.3._._.|.=X`.`._.%.P F O.A.:XGX.X",
"x c j j T T T T | | { { x.m.Z.m.m.m.Z.m.B.B.D.&XlXNXzX&X[.).:.%.F ` %.3.6.6.6.6.6.6.3.` ` ` ` Y U %.5._._.|.|._.6.o.O.).[.-X-.e ",
"x T T | .... ...x.x.x.m.Z.Z.m.B.N.S.Z.D.D.D.oXQ.gXJXMX*X[.>.I F D ) 3.6._.5.5._.6.3.2.2.2.` L C < C P ) 5.@X:X=X).[.;XXXK G r r ",
"[ | | m.m...| m.m.x.m.B.D.D.B.S.W.!.Q.S.S.~.~.!.%XDXSXgXA.E K ( >.`.@X`._.`._.).5.3.3.5.%.D V < * * < D %.|.:X:XxX$X-.E , r S S ",
"| | N.m.m.k.c.c.c.c.c.W.Q.W.S.S.!.W.S.N.S.Q.Q.S.S.jXJXgXZ.M.[.$X$XXX$X=X{.{.{.].{._._._.3.7.` C V C C Z U &.@XbX$Xu 9 9 0 0 r r ",
"| x.Z.S.x.| c.S.c.c.N.Q.W.N.c.b.c.c.l.N.N.S.Q.S.b.fXmXlXzXNXNXzXzX;X;X&XXX=XXXXX$X=X=X=X`.3.2.` U L Y ` U U 5.bX-.: ; 9 , w 0 , ",
"| x.m.| { x.S.x.k.x.N.S.N.k.| l.c.k.l.B.Q.oX~./.kXnXMXnXxXNXNXvXnXgXlXlXvXNXlX&XvX;X&XxXbX>X=X=X`.5.2.) %.&.{.bX[., : , , > > 0 ",
"l  .[ | [ m.| Q Q [ k.x.{ W W | T { Q N.oXoXfXgXlXlXzX;X-X$X&XzXzXgXvXlXgXlXlXvXlXzX&X$X-X:XbX:X:XbXbX=X{.].:XbX-.r S r 0 r r 1 ",
"i [ | T T T l l l T [ [ T j z } } W l.S.fXAXjXkXgX;X;X-X=XXX=X-X;X&X$X&X*XzXNXBXbX;X;X-X$XXX$X=X:XxXbXbX$X;XXXX.X.X.+.J J J J 1 ",
"x ..x i y x i i i i T T l i l z T c j.!././.jXmXNXzX=X{.).].].'.'.[.'.'.'.F.XX$X$XXX=X{._.`.{.{.$X:XbXBXBX:X-.,.>.,.;.;.<.<.,.@.",
"x x i i i j t y t t T T l i l l R T j.j.b.jXIXHXNX$X).:.$.;.;.@.X.@.J J @.*.;.>.5.2.2.2.` 2.6.>XbX:XbXbXbXzXXX'.M.).).).A.>.A.A.",
"y j j t q j c t t i W W z i l l u i g M (.AXDXgX#XA.$.o.U H S : $ > : $ ; , 1 S ) ` ' Z Y ' ` 3.=XBXBXBXvX&XXX'.'.).).'.'.).A.'.",
"q y t 5 5 q y q q t j i q 9 y y q y t M (.wXhXjX.X*.I P ) H @ X X X X X X X o @ < D Z Z Z Z Y 7.3.|.bXbXzX$XF.'.'.A.).[..X[.'.F.",
"i z k t i k i j i j k k i i l l l z W.AXLXhXkXmX~.-.$.U F I K @ X   .   X . X @ C L Y Z Z Z Y L %.:.{.-X;X&XXXXX[.'.F.[..X.X.XOX",
"{ { T z Q Q T T Q | .. .[ {  .{ } z.AXPX^.CXLXkXD.-.J D S A K S $ $ o X @ $ 0 P ) ' Y Y Z Z L ` _.].).-XXX.X.X[.OXF.G..X.XoXoX.X",
"k.Q W Q { [ [ Q | x.k.Q Q | | } ^ W.PXL.f iXKXAX%XG.M.:.=.! ! ,.=.w $ $ < < V A D D C C D L %.`.|.>XxXXX'..X.X'.F.F.Q..XoXoXoXoX",
"b.z.c.c.c.l.l.c.S.N.c.l.c.b.c.b./.fXAXr.3 uXKXLXkX.XF.'.'.'.A.-XM.% & & % & & & V A H =.:.].=X=X;XBXGXxX'.'.F..XF.D.~..X.XoXoXoX",
"n.b.L.L.W.L.W././.(.(.(.^.(./.CXLXPX^.6 0.ZXKXLXAX%XF.A.A.M.F.bX=.% % % & % % % V 4.].=XXXXX-X;XnXFXBXBXzXm.OX%XoX.XOX.X.XoX%X%X",
"n.H.H.v.v.v.H.L.T.H.H.H.L.H.^.KXPXPX^.s 3 wXZXZXjX/.OX'.M.M.'.XXXX! V % V V V A 4.].].].[.[.[.$XmXMXBXFX-X'.F.OX%XoX.X.X.XoX#X#X",
"qXqXqXqXR.wXuXuXqXT.T.qXqXT.qXLXKXKXhXs 3 qXLXCXkX~.OXM.M.,.*.M.A.].).4.4.~ ~ 4.3._.].{.[.{.$X;XgXvXNXNX[.M.A.A.OXG.OXOXOX.X#X%X",
"T.T.T.J.6XqXR.Y.K.T.T.3XqX3X6XsXKXKXZX3 3 r.CXhX/.D.*.*.=.+.$.=.=.=.:.=.:.&.4.&.:.3.).{.{.{.[.$X%XgXxX'.>.>.;.A.A.A.A.).'.[.[.#X",
"T.T.T.T.wXqXqXtX6XuXsXuXwXqX6X5XtXsXZXH.+ 3 n.(.W.m.*.@.X.O.X.$.$.O.U o.U #.#.#.&.>.5.).[.{.XXXX*XzX;X).:.3.>.:.>.>.,.>.).).A.'.",
"qX^.wXfXiXtXwX3XyXqXY.Y.T.J.T.R.E.sXZXZX9.+ O h l.*.*.*.;.*.@.*.$.$.O.$.o.O.$.&.O.:.5.).).[.$X-XzXzX{.>.&.3.5.&.>.>.:.:.>.M.M.A.",
"e.t.H.n.0.0.r.H.T.R.3X6XqXwXuXqXyXdXZXZXCX7   O i R E *.-.-.,.,.;.X.@.X.O.$.:.;.$.;.,.M.'.[.$X;XzX$X>.:.&.&.3.:.:.:.:.$.$.;.,.,.",
"<X8XuXuXuXuXwXhXqX^.wXT.(.wXL.H.d.aXdXtX!.j.; # o 9 R  .-.M.;.+.+.@.*.@.@.! O.O.+.$.;.A.'.'.$X-X-X'.;.&.&.&.&.:.&.:.:.$.o.O.;.;.",
"sXsXuXT.t.H.v.9.9.y.9.e.0.9.f s 8.a.uX^.z.x i , X . o o : r 0 K E E E J K K J O.O.;.>.).'..X&X*X.X,.$.$.%.2.&.&.o.#.#.o.I I O.$.",
"E.e.b 0.0.t.H.u.d.d.s.1X4XP.a.e.s.a.tXL.c u ; ; - . . .   o o : 9 9 : > 0 J ! +.;.,.>.'.XX&XzX%XF.*.+.#.#.&.&.&.$.$.&.%.o.o.$.&.",
"8.e.t.L.^.iXqX4X9Xs.s.d.7X1XP.yX8X3XH.b 7 5 ; o o . . O O O o o o # : , G E @.+.;.,.M.[.#X&XgX.XF.*.$.$.%.#.&.&.$.#.%.%.o.) o.o.",
"h.q.3 3 L.fXL.R.d.s.s.g.s.p.H.H.r.3 2 + +   . . .   o o o # o # # ; 9 0 S J E X.+.,.A.[.#X%X.XD.F.*.+.O.#.o.$.$.$.+.#.%.o.) ) o.",
"h.4 2 f iXC.%XAXCX5Xd.8.f y.b b 9.2 2 2 3 s d 6 3 O # # # # $ # $ ; , 0 G X.O.+.$.:.).[.#X#X~.Z.F.*.@.+.#.) O.;.$.O.O.O.o.) ( ( ",
"g.f Y.hX!.S.Z.D...[ j.w.w.K.i.I.P.Y.3XqX8X5X3Xr.r.v t 5 5 ; : ; ; ; : > S ] +.+.+.+.A.[.&X.XB.N.F.V.@.@.o.o.O.$.+.O.o.o.o.o.I H ",
"t.tXAXgX.. .G ] ,.G : ; g n.i.p.i.p.e.i.P.a.e.e.9.9.v 7 8 5 5 # ; ; $ , G J O.&.:.+.>.[.'.Z.m.x.B.V.@.@.X.o.o.O.+.O.o.) ) ) I J ",
"jXQ.m.F.>.<.J r @.,.G , 9 h r.r.p.p.i.I.Y.a.u.u.u.u.e.t.w.v B y q 9 > > S ( O.O.O.).).[.[.m.B.B.m.V.] +.X.) ) #.O.O.o.) ) ( ( J ",
"} | [.A.( < 1 1 0 0 , p l g b H.i.i.3X6X4X5X4Xa.2XaX5XT.L.v.c t u u , $ < H ) _ &.$.).{.[.Z.x.l.B.V.] @.O.( I o.o.o.o.) ) ) ( ( ",
"7 l.Z..., , e p 0 p p G p c M r.Y.3XtX8X3XY.3X6XT.v.M z y q u r r , > > V F H ) &.) ;.,.M.V.R { S.m.*.X.o.( P I o.o.) _ ) ) ( X.",
"8 8 5 e R a p u u u a R l z M M r.R.J.H.H.r.0.0.M g q q 9 > r p p p r > < F F H _ $.+.-. .] | Q x.B.m.] I P ( ( o.) ) ) ) ( X.X.",
"g i y a R a a u i 9 { l.{ } j.M M j.j.j.j z q t i u q q u u R [ [ T i p p r r < r r K E -.m.x.c.x.V. .E ! H ( P ( ( ) ( P ( X.I ",
"c g g x l i u 9 l | k.} } z g z z l i u 9 9 u p 9 u u u l { c.k.{ c z T T ] u 0 u G R  .R [ c.l.m.V. .E E J H H ( ( ( ( I I X.I ",
"M M n m { ^ c c i | l y y e 5 5 i l l u u 9 , p p p l R k t T [ W z Q g W k.m c z z j.c.W t z k.B.m.*.G E J F P ( H ( ( P P P P ",
"W.L.W.b.} g i u a i 9 u e e u u l y u 9 9 u p G p p u 9 u l T t j j j { m n v v.j.n n W k.{ R  . .m.Z.E E J H F P P P ( P H H F ",
"h m m c y e 5 9 e u 9 e e 9 e u G a p p e e G u u e u u 9 9 a R a l i t } z.L.v.M M 7 g k R R R  ...F.] G J J K H H ( H H H F F ",
"O O = 8 - - = O # - - O - - # - 5 e 5 - 5 - 5 y 5 8 5 5 5 5 i i t y 5 y n n.0.N d h N n z i u 9 y } F.A.-.E G J F H H H H H F F ",
"K.K.K.K.v.w./ w.r.0.b 0.w.b N b ^ N v d d 7 d d d d d d N b / v v d h d f f f f f s N d n.C.b.m y y i [ m.*.E G G J J J H H F F ",
"6X6X6XE.Y.R.E.Y.K.T.T.Y.6X3X5XyXtXtXR.R.T.R.tXqX3XqXqX5XtXtXiXiXiXtXqXtXtXyXtXqX5XqXT.T.R.L.T.^.L.^ } N.k.m.m. .G G J J ( H F F ",
"6X6XU.E.i.K.3XE.Y.Y.Y.I.P.<XyX5X6X6XU.I.8X4X4XeXyXeX8XyXyXaXsXsXaXaXeX7XeXaXaXyXyXyXyXyXyXyX3XR.L.L./.!.W.S.D.D.D.m.] G J G J S ",
"3XY.P.P.a.P.U.I.P.P.I.U.d.P.3X5X5X4X8X<XI.eX7X2X7X4X7XeXeXaXyXeXpX7X7XpXpXeXeXeXeXpX9X7XeXaXaX8XT.L.v.L.(.W.S.N.Q.Q.D...R J G K ",
"P.p.i.P.<XY.i.P.P.f.p.I.3X8X4X2X3XP.<X2X<XeX8X7X1X7XeX<XI.eXyXaX7X9X7X1X7XpXeX7XeX7X2XeXsXaX8X3XY.J.H.T.^.L.L.b.b.c.Q..Xm.] G G ",
"Y.P.p.e.i.<XI.i.a.I.f.p.I.2X4X4XI.d.d.4X8X2X2X4X7X<X<X4XyXsXeXeX8X4X2X<X7XeXeX7X2X9XeX<X<XyXyXyX3XY.T.T.T.L.b.W.b.b.!.S.~.&X .p ",
"t.p.p.p.Y.H.i.i.i.P.i.p.<X4X7X2X2X4Xa.u.<X7X7X1X2X2X<X2XeXeX7XeX4Xd.1X7X9X4X2X2X9X<X<X<X0XyXyXuX5X5XT.t.L.^.L.L.z.b.W.S.b.D.#XZ.",
"y.t.H.H.p.p.i.i.u.p.P.U.6X2X3X<Xd.a.d.I.4X2XI.I.d.2Xd.u.d.7XeX4X<X2XP.a.<X7X1X1X2XI.P.4X5XyX6XE.3XR.H.H.T.^.L.v.L.b.b.S.l.x m..X",
"t.y.e.K.H.p.p.p.i.p.p.U.U.I.I.P.u.i.U.U.P.d.P.I.i.d.I.I.6X6X3X2X2X4Xd.u.<X8X<X<XP.I.U.I.i.3X6X5X5XH.H.^.T.L.v.v.v.z.b.C.} } N.| ",
"y.y.p.Y.p.i.t.p.K.t.e.Y.Y.E.U.i.P.p.e.P.E.P.P.P.f.p.I.U.6X2XP.U.a.u.P.2XI.U.I.d.I.U.3Xi.u.rX5X5XE.T.T.t.v.^.L.v.v.j.W.c.} S.| a "
};
