/* XPM */
static char *_5e49d1a7f764e7095f3d1d95d03031498O9xi3vADMRfdXW[] = {
/* columns rows colors chars-per-pixel */
"64 64 256 2 ",
"   c #05070B",
".  c #170A06",
"X  c #1B150B",
"o  c #0B0D12",
"O  c #0D1214",
"+  c #0D1319",
"@  c #121215",
"#  c #13131A",
"$  c #131A1C",
"%  c #1C1C1B",
"&  c #1B1616",
"*  c #150D11",
"=  c #251809",
"-  c #261A18",
";  c #361D16",
":  c #28100C",
">  c #1D211B",
",  c #382309",
"<  c #2B2214",
"1  c #24221C",
"2  c #2A261B",
"3  c #372618",
"4  c #39321D",
"5  c #24210D",
"6  c #151C21",
"7  c #1B1D23",
"8  c #261D22",
"9  c #1C2324",
"0  c #1D232A",
"q  c #1D2828",
"w  c #1F362F",
"e  c #222424",
"r  c #2B2B25",
"t  c #23252A",
"y  c #242A2B",
"u  c #2C2D2C",
"i  c #2A2625",
"p  c #362A27",
"a  c #2E312B",
"s  c #2B3228",
"d  c #34332D",
"f  c #393428",
"g  c #282C32",
"h  c #2C3233",
"j  c #2D3636",
"k  c #333534",
"l  c #353A35",
"z  c #3B3B34",
"x  c #353A3B",
"c  c #3B3C3B",
"v  c #393636",
"b  c #3A2D34",
"n  c #472B1A",
"m  c #48351D",
"M  c #542D1A",
"N  c #432B25",
"B  c #473828",
"V  c #573828",
"C  c #473B37",
"Z  c #563935",
"A  c #4F282B",
"S  c #623826",
"D  c #663931",
"F  c #4E211C",
"G  c #3D413C",
"H  c #3A4539",
"J  c #574429",
"K  c #4B4233",
"L  c #44433C",
"P  c #4C443B",
"I  c #474638",
"U  c #564738",
"Y  c #5B523C",
"T  c #4B4129",
"R  c #664837",
"E  c #695638",
"W  c #735B3C",
"Q  c #775937",
"!  c #6C4A2E",
"~  c #79643B",
"^  c #70643A",
"/  c #3B3C42",
"(  c #663B46",
")  c #4A3F43",
"_  c #3D4344",
"`  c #434443",
"'  c #4A4544",
"]  c #4B4B44",
"[  c #4B4C4B",
"{  c #444746",
"}  c #534B43",
"|  c #574A47",
" . c #5C5444",
".. c #54534B",
"X. c #5C544C",
"o. c #585646",
"O. c #595855",
"+. c #4F514E",
"@. c #674947",
"#. c #744B4A",
"$. c #625344",
"%. c #645C4C",
"&. c #685848",
"*. c #775A48",
"=. c #645C54",
"-. c #675C56",
";. c #785954",
":. c #694C53",
">. c #6B624C",
",. c #74644B",
"<. c #796648",
"1. c #696459",
"2. c #736353",
"3. c #7C6C54",
"4. c #7B6C5B",
"5. c #766758",
"6. c #7B745A",
"7. c #727450",
"8. c #785C63",
"9. c #6A6865",
"0. c #766A65",
"q. c #797469",
"w. c #7B7776",
"e. c #6C706F",
"r. c #5D605F",
"t. c #866A3B",
"y. c #90713B",
"u. c #81533E",
"i. c #855957",
"p. c #8C564F",
"a. c #826B43",
"s. c #85694A",
"d. c #8B7245",
"f. c #8B744B",
"g. c #887449",
"h. c #937A4C",
"j. c #957749",
"k. c #836C54",
"l. c #826D5B",
"z. c #886858",
"x. c #936758",
"c. c #8B7453",
"v. c #84735B",
"b. c #8A755D",
"n. c #897757",
"m. c #937C53",
"M. c #947D5C",
"N. c #967856",
"B. c #8C5B64",
"V. c #886967",
"C. c #95696A",
"Z. c #8B7563",
"A. c #8C7B64",
"S. c #887769",
"D. c #957967",
"F. c #8A6A72",
"G. c #976C73",
"H. c #877B75",
"J. c #9A7676",
"K. c #A47668",
"L. c #A77A78",
"P. c #A96F6D",
"I. c #7B8A75",
"U. c #6E825D",
"Y. c #99824B",
"T. c #9B8354",
"R. c #9B845B",
"E. c #978258",
"W. c #88845C",
"Q. c #A38A59",
"!. c #AB935B",
"~. c #B6995A",
"^. c #AA8B4D",
"/. c #8D836A",
"(. c #9B8463",
"). c #988568",
"_. c #8A8378",
"`. c #988676",
"'. c #989577",
"]. c #8D957A",
"[. c #A38B63",
"{. c #A48C6A",
"}. c #AA9367",
"|. c #B5996A",
" X c #A88779",
".X c #B78779",
"XX c #A89879",
"oX c #B89A77",
"OX c #BF826D",
"+X c #BCA678",
"@X c #B3A270",
"#X c #9AA27B",
"$X c #C38978",
"%X c #C8986E",
"&X c #C6A86B",
"*X c #CAB574",
"=X c #D4B97A",
"-X c #C9A973",
";X c #C79558",
":X c #A67C82",
">X c #B17D85",
",X c #9B7E85",
"<X c #998B84",
"1X c #999787",
"2X c #8D8F8B",
"3X c #A88787",
"4X c #B48B8C",
"5X c #B88A87",
"6X c #A6938A",
"7X c #B99689",
"8X c #B88D92",
"9X c #A89696",
"0X c #BC9493",
"qX c #B89797",
"wX c #AA8E92",
"eX c #9CAD94",
"rX c #A7A28C",
"tX c #B8A49A",
"yX c #B1AB90",
"uX c #A7A4A6",
"iX c #B7AEAC",
"pX c #B79CA1",
"aX c #C58D83",
"sX c #C6958A",
"dX c #C49B94",
"fX c #C89996",
"gX c #D19C99",
"hX c #D09188",
"jX c #C9B789",
"kX c #C9A399",
"lX c #D2A59C",
"zX c #C9B796",
"xX c #D1B188",
"cX c #C49BA4",
"vX c #C9A9A6",
"bX c #D5ABA6",
"nX c #C5BAA8",
"mX c #D8B4AA",
"MX c #D6B8B3",
"NX c #C8AFB3",
"BX c #E1BB9E",
"VX c #BBC6B3",
"CX c #D6C590",
"ZX c #EAD79B",
"AX c #EFCD8C",
"SX c #D0CBB3",
"DX c #E6D2AE",
"FX c #F0E8B1",
"GX c #EFE09B",
"HX c #BDBDC5",
"JX c #D5D0C4",
"KX c #E4DDCC",
"LX c #EFEBD1",
"PX c #FCFDF3",
"IX c #F0F1E8",
"UX c #DCE3C9",
/* pixels */
"A.).).`.rXSXKXIXPXPXJX2X2Xq.H._.H.w.w.w.w.w.w.w.q.w.q.0.w.e.9.e.e.[ ` | | P  .=.5.K < < f } %.U V M V V S S M M S V M M n , n n ",
"3.3.Z.v.A./.iXLXPXIXiX2X2X_.w.q.q.0.0.9.9.1.=.=.=.1.X.| [ ' / _ c ] L L X.-.$. .K K < = f P C C U m m m M M F F F n n 3 , , , , ",
">.3.3.&.2.4.nXIXPXPXIXiXw.9.=.=.%.%.%.%.%.%.$.$.&.>.&.&.%.=.O.O.] O.[ ] 1.=.C K C  .K f K B 3 N i - p 3 , , 3 ; ; p p p f f 4 4 ",
"&.4.2.&.4./.KXPXPXPXIXuXq.q._.H.6.4.,.,.5.4.v.v.3.3.,.,.5.4.1.O.O.r.[ P %.| B U Y  .$.$.K 4 3 3 p - i < = 3 3 ; - 8 8 8 - - X X ",
"&.2.&.2.3.5.yXJXSXuXiX_.w.H.6X1X`.).b.v.A.).).A.D.b.v.v.S.S.0.X.[ +.' B B K K B J B J Y B 3 3 4 z & . . . - = X . X & X X X & & ",
"$.-.&.2.5.2.q._.q.O._.e.w.=._.`.).D.b.b.Z.D.Z.k.z.k.k.l.Z.H.0.| +.] } } K J U J J T B J J 3 , B 3 5 < < < = X < 3 4 B B B K U } ",
" .%.&.$.2.5.5.=.X.L O.1.q.1.<X1X).D.D.b.Z.Z.b.k.b.z.l.l.l.S.0.} +.C P $.E E E W E R E &.&.U J J , J W U J Z B U E W ^ W E E $.$.",
"%.$.&.B B 3 f B f L 1.9.1.=.<X`.).).D.k.3.k.k.<.<.<.<.,.2.0.1.] ' ' P K U E W ! W J *.k.<.<.g.E , E *.m B E J m E ^ ~ ~ W E E R ",
"| U U < U tXtXP 2 f O.O.1.1.<XH.v.c.k.3.,.<.<.<.s.<.<.<.2.6.1.L ` ` P Y ,.~ ~ Q ~ E <.<.n.c.a.W = m J T E >.Y E E ,.E W E E E J ",
"| K C 3 K 2.>.B 2 z [ O.1.=.<X_.A.A./.b.v.,.,.,.<.<.,.,.4.q.1.L +.L U ,.k.m.Q.h.f.a.f.c.R.M.f.a.W <.v.3.E <.7.^ E s.~ ! <.E J E ",
"P f p X = 4 B < 1 ..O.O.O.O.H._.S.v.4.5.2.>.5.v.v.3.4.5.5.1...l c ` %.).(.Y.Y.Q.[.T.R.[.[.[.h.j.h.h.h.g.W <.~ d.~ t.j.y.j.!.}.+X",
"X.K f < < B P 2 - e.9.O.O.=.H.w._.H.H._._.H._.`.H.S.S.0.9.1.O.` +.k  .yX@X@X=X@X@X}.}.oX}.}.h.j.f.<.~ W <.<.<.E.j.Y.~.=X=XZXZXFX",
"SX1Xo.2 1.SXiXK 5 9.9.O.O.1.e.9.1.-.=.-.-.O.X.X.$.$.| } [ [ [ { ` z Y zXCXCXxX=X-X|.|.+XQ.!.Y.Y.<.E q.I.]._._.6.+XZXZXFXLXFXSXUX",
"2XKXSXq.q.q.%.f 2 ] [ [ O.+.O.[ =.X.[ ' ' ' } } P P C C ` ` / _ ` l 1.LXFXZXAX=XxX&X-XoXQ.!.!.Q.^ 7.1X].eXeXrX'.jXGXFXZXFXFXUXUX",
"X I SXIXyX .Y 2 r d { { [ [ O...] ........X.X.|  .$.| } | ' v v / z U DXFXZXCX=X=X@X-X|.Q.!.|.!.g.W.XX'./.#XjXCX~.=XAX=X*XGXFXFX",
"2 X X 5.KXJX`.B 2 1 O.[ [ +.e.e.0.q.q.1.1.5.0.4.4.6.4.0.q.9.[ { c L >.FXZXCX*X*X&X~.&X|.Q.!.|.!.~ ~ +XZXE.}.CXCX^.AXAX*X~.FX=XGX",
"4 Y 5 = B `.SXrXo.I O.r...O.w.0.S.q.5.S.0.5.v.v.3.k.3.4.1.0.+.` { d 7.CXCX*X=X=X=X=X=X~.Y.|.m.[.a.Q j.|.t.y.^.;X~.&X~.=X&X^.&X;X",
"T B K A.Y X T `.1XrX1.] ..=.w.H._.S.Z.S.A.v.v.<.k.k.v.S.q.q.X.' v C 6.yX*X*X&X*X&X&X*X~.Y.}.R.(.^ XX+XxXQ.xX-XCXQ.xXCX&X=XCX-X%X",
"U Y E $.B B B = Y 1X%.U o.X.S._.S.v.5.4.4.3.v.k.<.<.,.v.4.0.} C ` z >.XX|.!.Y.!.!.^.^.^.y.h.M.D. .'.6XXX).XXM.{.{.XXzXb.'.XX/.yX",
"6.6.A.v.J Y 5.S.S.rX6.1.%.2./.v.l.3.l.v.Z.3.b.b.v.k.l.Z.0.0...` [ v >.{.}.!.^.!.!.y.j.Q.d.d.M.`.1.o.rX_.tX'.yX6XnX6XtXtXSXSXrXVX",
"A./.`.A.4.6X6XS.$.&.>.4.Z.Z.`.b.k.k.b.3.3.,.k.,.b.Z.v.4.2.0.| c c d >.).c.Q.!.T.}.j.j.Y.g.f.).`.>.6.iXnXyXSXnX6X6XqXqX9X1XI.e.I.",
"'./.A.A.*.&.B : . = B V E E W <.k.M.XXb.v.l.Z.l.l.Z.l.5.5.q.O.C { ` 5.XX(.[.|.}.}.R.T.g.f.E.).).E /.DXSXSXKXDXyX5.vXtX6X9...e.VX",
"Y m 3 B n ; 3 Z @.;.V.J.7X7XK.N.W E D.b.A.4.4.5.2.2.-.%.=.9.[ c c c P ).XX[.}.}.}.[.[.g.(.{.A.D.R.oXjXjXjXDXDXzX`.yXqX9XH.o.w.UX",
"< 3 ; Z #.G.3X8XqXdXqXkX7XlXlXkX(.V B Y S.4.V.S.H.S.5.5.1.9...{ ` ] p >.XX{.R.m.R.h.E.a.{.).,.M.oX|.oX-X|.CXDXyXXX,./.`.0.U S.KX",
". B J.8XqXqXqXqXqXdX0XdX7XsXsXsXXXE n B $.-.-.-.5.5.5.-.9.O.[ _ G l | 4.v.{.[.|.}.}.}.R.(.).c.(.oX|.oX-X+XzXCX#X].o.o.1.1.X._.tX",
"3 H.wXqXcXcXcXcXcXvXfX0X5X5X5XsX XD.R B Z $.U U C P P C C ` { [ { G f &.).{.[.T.h.T.[.M.M.(.c.[.}.oXxX-X+XzXCX#XeXI.I.2X1X_.`.`.",
"| wXwXvXNXcXcXvXqX:Xi.@.#.;.p.i.*.7XJ.U B &.$. .$.%.%.} ' [ c x G G f K A.XX}.Q.T.Q.}.{.M.R.a.f.T.}.xXxXjXjXyX'.eXeXeXeX1X_.D.D.",
"C F.F.;.:.J.F.8.( ( ( D #.;.G.L.x.kX.X;.R `.`.S.`.`._.S.w.H.O./ c L O.< V n.m.T.h.T.[.(.N.M.a.j.d.t.d.h.j.g.7.7.7.U.6.1.>.&.*.z.",
"- p :.:.A ( A G.B.i.J.3X3X3X8X:XL.sXsX7XV. X XZ.b.b.l.4.q._.X.c [ [ 9.- = E R.Q.Q.R.M.M.c.M.m.T.h.y.t.y.y.t.~ <.n.W.7.7.3.k.f.N.",
"- C 0.8.F.:X;.8XcXJ.G.J.L.3X4XG.5XgXfX.X! s.7X(.k.z.z.l.0._.| C ` c k * . m [.R.T.m.M.N.c.c.j.y.j.j.d.j.h.T.m.f.E.R.n.n.c.m.m.[.",
": :.wXqX3XG.i.4XcX4XC.V.V.G.:X8XaXhXaXK.! s.oXN.a.a.k.l.l.`.| ' [ { e * : n M.f.d.f.(.D.{.M.Q.j.m.m.f.d.f.h.N.h.a.s.s.f.a.f.E.}.",
"p F.3X3XJ.J.L.( D @.Z @.B.G.B.G.5XL.L.K.! ! K.N.c.s.s.k.l.`.| C ` ` i . X B <.~ Q Q s.s.c.a.j.t.d.f.h.T.R.m.h.M.N.N.c.N.s.c.g.g.",
"S.V.V.3X3XC.#.#.V.L.>XL.C.B.B.i.L.l.&.;.R n b.{.D.D.b.3.S.<X$.P ] ` d p B &.&.M.c.a.N.[.N.j.N.j.d.T.f.~ d.Q.T.a.f.f.c.c.c.<.(.{.",
"kXL.z.J.3XV.#.V.J.L.C.G.>X5XfXL.5.-.K n n V {.D.b.D.D.v.`.<XU C C L C K P  .Y ,.,.c.N.f.d.N.N.j.T.T.j.j.h.h.f.T.h.c.f.g.M.D.{.).",
"bXbXlXL.i.i. X0X3XC.Z @.J.3X3X:.B C B 3 B z.sXoXs.! m ; } 0.O.O.9...] P } >.2.4.v.A.k.W <.f.h.N.h.T.T.T.T.f.d.E.E.(.(.c.c.M.).c.",
"lXlXbXbXlXi.V Z V.V.:.&.@.U U B C p p V ;..XkXsXBXoX7X5.p l O.r.{ ] O.q.q.0.>.%.5.v.A.b.s.<.c.}.m.T.h.d.f.d.h.[.m.R.R.m.c.M.[.g.",
"sXkXmXlXlXbXkXC.V n ; ; - = = < - 3 | V. XdXsX7X7X7XS.3 d { j y O.O.9.1.] f f B >.U Y 3.b.b.b.s.E.m.h.R.[.E.T.}.R.E.E.E.[.[.[.<.",
"7XdXkXkXbXkXdXkXvXC.@.; . . . = N @.D.3X4XkX0X3Xl.p - i r u x { [ [ { z k r I o.} K  .5.%.>.4.3.<.s.f.m.[.R.m.m.R.m.R.[.Q.E.E.~ ",
"R n R  XkXbXbXbXkXmXDXvXD.@.V U *.D. XqX7X`.@.8 . * - e r ` ` k [ { u e c c [ [ z f f z f K }  .,.n.n.c.(.{.[.R.a.t.h.h.d.f.R.a.",
"3 B R 3.l. X0XgXbXbXvXbXMXMXmX0X X XD.V.Z - . * u u t h k l d ] y j y u [ G l e d d a z I I P %.U &.v.).XX(.g.f.f.~ t.~ Q t.E.~ ",
"%. .B N ;.J.L.L.8XfXbXbXbXgXbXmXlX.XM . . X i t t t y t x l a l { g h h 9 y j > y l z z G c G ..U Y J E '.'.R.a.a.R.T.h.R.~ f.~ ",
"5.-.%.V.wXqX4X3XL.4XdXfXbXmXbXbXMXDXmX6X| - i i % u t h l l G % t 9 9 t 9 % y x k y k G k c [ ] I >. .U Y ,.).g.}.}.m.m.R.d.f.Q ",
"<X6X9XwXJ.V.F.J.J.:XJ.3X3X8XvXqXvXvXMXMXSX6XB p p 2 z % $ j j t $ y 9 O 9 y t u h x k y h x x k ` P K  .U T 3.XXm.R.E.m.a.f.m.~ ",
"Z C | | N : : : p p Z p | Z V.wX9XNXiXvXNXMXvXD.Z = . f l $ 9 t $ y 9 $ h x y t k _ j h c c k x L L z ..%.B m M.XX}.{.[.N.(.R.W ",
"- - - p b p 8 * * & 8 . - p & 0.NXiXiXvXvXkXbXmXmXD.;.6X9X1Xe 7 $ $ e k l a k _ c 9 y _ c k c { x h k P X.U = J k.E W <.~ W c.M.",
"- 8 8 7 8 8 7 # # @ 7 u % e & * C pXNXMXbX0XbXfXdXmXMXS.U JXp 1 1 % y k y t k c c k k k k l c x x t G L I  .4 , 7XM.E J E W <.W ",
"$ 6 # + 6 $         +.x 9.[ 2Xi : @.qXMXvXbXmXkXbXkXqXmX7XtX3 . i y y e e u a e l +.{ u c { c k x _ +.k d %.Y = ).zXXXk.E W <.W ",
"6 0 6 + $ + o 6 $ _ 2XO.2XiXuXw.. @.3XtXbXvX0XfX0XfXkXdXkXbX7X&.- 1 1 e d d r i r i k c c ` ` l h j h l ] ] } 4 B zXzX7Xs.W *.<.",
"6 $ $ $ $ # + + 7 t 9.w.9.2X{ 2X1.1.q.0.iXqX3X0X8XfXgXfXdXkXbXvX7X*.N 3 2 < r d l a a c [ v i b ' ' l L { H z f 4  X7X7XoXJ *.Q ",
"$ $ $ # # # @ @ o 7 t e.c 9 > G O.t i * 0.qXwXqX0XfX0XdXgXdX0XkXkXkX7Xl.B = < 2 z L L c u u k v p v l ` _ H ] L < &.*.*.! S s.u.",
"# # # # # # @ @ O y u 7 v t c u 9 a l & i 8.pX3X4X8X0X0X0XdXfXdXfXkXkXkX7X X;.3 X 2 C l r ` +.c u l G G H { ..P K U *.*.V S Q Q ",
"# # # # @ @ @ @ @   t t + y k x 9 y % u 8 - 0.9XwX:X4X0X4XdXbXdXgXsXfXfXfXdX0X3X;.N - 2 r s k l l G c l l L ] ] K B &.*.J S Q Q ",
"# # # # # # # + # # # h g 7 # g h g $ e v 8 8 F.wX3X3X0X0X0XdXdXfXsXfXlXlXgXfXdXfXqXJ.U f s s a O.O.{ z { L z I f f T J ! M Q Q ",
"# # # # # # + + #   + 7 0 7 y o + t t y e % % - -.wX9X3X0X0X4XfXsXdXlXgXfXfXgXgXfXdX0X7XH.K < f ....] L } P d I K 2 4 U b.M ! ! ",
"# # # # # @ + +   # + 7 $ g 6 / 0 $ 6 j 0 $ / 7 8 9.<X3X3X8X8XfXdXdXfXdXfXgXgXsXgXsX5XkXvX3X;.U p f K C C P P P p X < U v.m ! Q ",
"# # # # # @ @ O O O + o 0 0 t 6 0 0 g + 6 0 7 t * & -.wX3X3X8X4X0X0XdXdX0X5XfXfXfXfXgXfXsXfX5XD.U U 2.&.Z U U K 2 2 2 = B m R R ",
"# # 7 O # o o O O O O o $ y g 7 7 g 0 0 0 0 7 $ t @ 8 X.,XwX:X3X4X4X4X0X0X8X5XdXsXfXfXsXsXhXhXsX7XD.b.D.J.5.U P C X s 2 X < Z R ",
"# O o # o & e . @ * * O O $ 0 7 6 t 7 7 0 9 6 0 $ 7 8 8 ) F.3XwX3X4X4X4X4X3X5X7X7XsXsXsXhXhXhXhXsX.X.X.X5X3XU N r > s r f < p U ",
"9.` o 8 * . X . X X 2 a 1 % 9 7 y y y y q 9 0 h 9 t t & - C 8.,X:X>X>X4X4X4XL.L.3X5X5XaXaXsXhXaX$X$X$X.X5X7XB . i 1 > % d a f } ",
"HXuXO.[ =.| U $.U Z Z B - X % % e 7 9 9 9 9 $ y 0 # 7 e & & p | G.L.:XL.:X:XL.L.L. X5X5XaXaXaX$X$X$XOX.X XD.N : a u l e % % d d ",
"iXiX2X=.0.F.z.z.;.#.R B ; X - 1 1 % e e t y t g h 0 y h k k i 8 C :.V.F.J.J.J.L.J.L. X.X.X5X5X.X$X$XOX XJ.@.C d d l l i u i r & ",
"uXuXiX0.@.;.z.p.p.#.R Z N 3 p C 1 @ % % 9 y 9 0 y 0 g g y y t % & i C :.0.F.F.C.G.P.L.L.L..X5XaX$X$XaX.XS.p p d u c u u ] l d d ",
"iX9X9XF.@.;.x.x.x.p.! S N ; p =.C - i i t a t y g y x x 0 y g g g q $ 1 C | #.i.B.C.P.P.P.L..X.X$X$XsX X&.2 r u u ` C k z 1 s I ",
"uXuXH.8.;.x.x.p.p.u.D D V : < -.L & 1 e e y t j y t j g q x x 0 w w q 9 - - F D #.p.B.C.P.P.P.P.L.P.L.&.< 1 l c u i i i a s I s "
};
